<svg xmlns="http://www.w3.org/2000/svg" width="451.433" height="59.499" viewBox="0 0 451.433 59.499">
  <g id="Group_4" data-name="Group 4" transform="translate(-228.167 -435)">
    <g id="Page-1" transform="translate(297.5 454)">
      <g id="harvard-long-light-text">
        <g id="Group">
          <g id="Shape" transform="translate(177)">
            <g id="Group_2" data-name="Group 2">
              <path id="Path_87" data-name="Path 87" d="M1.8,2.6C1.8,1.7,1.2,1,0,.8V.2C.7.2,2.9.3,3.5.3,4,.3,6.2.2,6.9.2V.8A1.829,1.829,0,0,0,5.2,2.6V14c0,3.6,2,5.7,6.1,5.7,3.6,0,6.4-1.6,6.4-5.4V2.5c0-.9-.5-1.5-1.9-1.8V.2c.5,0,2.3.1,2.9.1.5,0,2.5-.1,2.9-.1V.8c-1.3.3-1.9.9-1.9,1.8V13.7c0,5-2.9,7.8-9.2,7.8-5.8,0-8.9-2.7-8.9-7.3Z" fill="#f3f4f4"/>
              <path id="Path_88" data-name="Path 88" d="M26.9,20.6c1.4-.2,1.9-.9,1.9-1.8V3c0-1.3-.7-1.9-1.9-2.3V.2a20.084,20.084,0,0,0,2.4.1A12.1,12.1,0,0,0,31.2.2L44.9,16.3V2.5c0-.9-.5-1.5-1.9-1.8V.2c.5,0,2.2.1,2.9.1.5,0,2.4-.1,2.9-.1V.8c-1.3.3-1.9.9-1.9,1.8v19h-.8c-.5-.1-1.5-.7-3-2.3L30.8,4.9V18.8c0,.8.5,1.5,1.8,1.8v.6c-.5,0-2.2-.1-2.9-.1-.5,0-2.4.1-2.9.1Z" fill="#f3f4f4"/>
              <path id="Path_89" data-name="Path 89" d="M135,16.4h.6a5.308,5.308,0,0,0,1.9,2.9,6.97,6.97,0,0,0,3.8,1c2.8,0,4.5-1.4,4.5-3.5,0-2.2-2.2-3.4-4.9-4.7-2-1-5.9-2.6-5.9-6.4,0-3.5,2.7-5.7,7-5.7,2.8,0,4.2.7,6.1.6V4.9h-.6c-.8-2.5-3.1-3.4-5.6-3.4-2.8,0-3.9,1.6-3.9,3.2,0,2.3,2.3,3.5,4.9,4.7,2.9,1.3,6.1,2.9,6.1,6.6,0,3.4-2.7,6-7.6,6-3,0-4.7-.8-6.2-1Z" fill="#f3f4f4"/>
              <path id="Path_90" data-name="Path 90" d="M193.8,12.5l-5.6-9c-1-1.6-1.7-2.4-2.7-2.8V.2c.8,0,2.8.1,3.4.1.5,0,2.8-.1,3.6-.1V.8c-.7.1-1,.5-1,1a3.511,3.511,0,0,0,.6,1.6c.3.5,4.1,6.8,4.1,6.8l4-6.8a4.632,4.632,0,0,0,.7-1.8c0-.4-.3-.7-1-.8V.2c.7,0,2.1.1,2.5.1s2.1-.1,2.7-.1V.7a7.7,7.7,0,0,0-3.4,3.5l-5.1,8.5m.4-1.1v7.1a1.9,1.9,0,0,0,1.8,1.8v.6c-.7,0-2.9-.1-3.5-.1-.5,0-2.7.1-3.4.1v-.6a1.993,1.993,0,0,0,1.8-1.8V12" fill="#f3f4f4"/>
            </g>
            <path id="Path_91" data-name="Path 91" d="M90.2.2h13.1a3.887,3.887,0,0,0,1.5-.2h.6l-.1,4.3h-.6c-.5-1.3-1-2.4-3.5-2.4H95.5V9.3h4.4c.6,0,1.4-.1,1.8-.1a1.907,1.907,0,0,0,1.6-1.6h.6v5.2h-.6a2.3,2.3,0,0,0-1.6-1.7,7.449,7.449,0,0,0-1.8-.2H95.5v8.7h6.2c2.7,0,3.5-1.1,4.1-2.7l.6.1-.6,4.4a47.868,47.868,0,0,0-5.5-.2H93.8c-.6,0-2.9.1-3.6.1v-.6c1.2-.2,1.9-.8,1.9-1.9V2.6c0-1-.5-1.6-1.9-1.8Z" fill="#f3f4f4"/>
            <path id="Path_92" data-name="Path 92" d="M56.8,2.7c0-1.1-.6-1.7-1.9-1.9V.2c.7,0,3,.1,3.6.1S61.4.2,62.1.2V.8c-1.2.3-1.9.8-1.9,1.9v16c0,1.1.6,1.7,1.9,1.9v.6c-.7,0-2.9-.1-3.6-.1-.6,0-2.9.1-3.6.1v-.6c1.3-.2,1.9-.8,1.9-1.9Z" fill="#f3f4f4"/>
            <path id="Path_93" data-name="Path 93" d="M156,2.7c0-1.1-.6-1.7-1.9-1.9V.2c.7,0,3,.1,3.6.1s2.9-.1,3.6-.1V.8c-1.2.3-1.9.8-1.9,1.9v16c0,1.1.6,1.7,1.9,1.9v.6c-.7,0-2.9-.1-3.6-.1-.6,0-2.9.1-3.6.1v-.6c1.3-.2,1.9-.8,1.9-1.9Z" fill="#f3f4f4"/>
            <path id="Path_94" data-name="Path 94" d="M174.2.3c-7.2,0-8.3-.1-9.8-.2V4.4h.6A2.773,2.773,0,0,1,168,2h4.5V18.7c0,1.1-.6,1.7-1.9,1.9v.6c.7,0,3.1-.1,3.6-.1.7,0,2.9.1,3.6.1v-.6c-1.3-.3-1.9-.9-1.9-1.9V2h4.5a2.773,2.773,0,0,1,3,2.4h.6V.1C182.5.1,181.4.3,174.2.3Z" fill="#f3f4f4"/>
            <path id="Path_95" data-name="Path 95" d="M117,18.7c0,1.1.7,1.7,2,1.9v.6c-.7,0-3-.1-3.6-.1s-2.8.1-3.5.1v-.6c1.2-.2,1.9-.8,1.9-1.9V2.6c0-1-.5-1.6-1.9-1.8V.1c.7,0,2.9.1,3.5.1,1,0,4-.2,5.1-.2,5,0,7.8,2.1,7.8,5.6,0,2.8-2.1,4.7-5.3,5.5a6.742,6.742,0,0,1,1.5,1.3c.9,1,3.3,4.5,4.3,5.7s2.3,2.5,3.6,2.6v.5a17.135,17.135,0,0,1-2.5.3,5.3,5.3,0,0,1-4.4-2.2c-1.1-1.4-3.1-4.3-4.2-5.7a4.521,4.521,0,0,0-3.2-1.9c-.3,0-.6-.1-1-.1Zm0-8.6a20.121,20.121,0,0,0,2.6.1c3.9,0,5.2-2.3,5.2-4.3,0-2.8-1.9-4.6-5.3-4.6a21.052,21.052,0,0,0-2.5.2Z" fill="#f3f4f4"/>
            <path id="Path_96" data-name="Path 96" d="M67.1,2.8a3.261,3.261,0,0,0-2.4-2V.2c.7,0,3.3.1,3.9.1.5,0,2.8-.1,3.5-.1V.8c-.7.1-1.5.5-1.5,1.2a6.552,6.552,0,0,0,.9,2.4l5.4,12.3L82,4.4A7.543,7.543,0,0,0,82.7,2c0-.7-.6-1.1-1.5-1.3V.2c.7,0,2.4.1,2.9.1S86.5.2,87.3.2V.8c-1.3.3-2.1,1.1-2.8,2.7L77,21.3H75.3Z" fill="#f3f4f4"/>
          </g>
          <g id="Shape-2" data-name="Shape">
            <path id="Path_97" data-name="Path 97" d="M73.6,2.8a3.261,3.261,0,0,0-2.4-2V.2c.8,0,3.2.1,3.8.1.5,0,2.9-.1,3.7-.1V.8c-.7.1-1.4.5-1.4,1.2a6.552,6.552,0,0,0,.9,2.4l5.4,12.3L88.7,4.3a7.543,7.543,0,0,0,.7-2.4c0-.7-.6-1.1-1.5-1.3V.2c.7,0,2.3.1,2.9.1.5,0,2.4-.1,3.2-.1V.8c-1.3.3-2.1,1.1-2.8,2.8L83.6,21.4H81.9Z" fill="#f3f4f4"/>
            <path id="Path_98" data-name="Path 98" d="M.6,20.6c1-.2,1.7-.7,1.7-1.8V2.5C2.3,1.4,1.7,1,.6.7V.1c.5,0,2.7.1,3.3.1S6.9.1,7.4.1V.7c-1,.2-1.7.7-1.7,1.8V9.3H17.9V2.5c0-1.1-.7-1.6-1.7-1.8V.1c.5,0,2.8.1,3.4.1.5,0,2.8-.1,3.3-.1V.7c-1,.2-1.7.7-1.7,1.8V18.8c0,1.1.7,1.5,1.7,1.8v.5H16.2v-.5c1-.2,1.7-.7,1.7-1.8V11.1H5.6v7.7c0,1.1.7,1.5,1.7,1.8v.5H.5Z" fill="#f3f4f4"/>
            <path id="Path_99" data-name="Path 99" d="M141.2,20.6c1.3-.2,2-.7,2-1.9V2.5c0-1.1-.7-1.6-1.9-1.8V.1c.7,0,3,.1,3.6.1,1,0,3.8-.2,6-.2,7.5,0,12,4.2,12,10.5,0,6.2-4.7,10.7-12.4,10.7-2.2,0-4.7-.2-5.8-.2-.6,0-2.8.1-3.5.1Zm5.3-1.1a30.77,30.77,0,0,0,3.3.2c6.3,0,9.6-3.8,9.6-9,0-5.5-3.4-9.3-9.3-9.3a33.185,33.185,0,0,0-3.5.2Z" fill="#f3f4f4"/>
            <path id="Path_100" data-name="Path 100" d="M56.5,18.7c0,1.1.7,1.7,1.9,1.9v.6c-.7,0-3-.1-3.7-.1-.6,0-2.8.1-3.5.1v-.6c1.2-.2,1.9-.8,1.9-1.9V2.6c0-1-.5-1.6-1.9-1.8V.1c.7,0,2.9.1,3.5.1,1,0,3.9-.2,5.1-.2,5,0,7.8,2.1,7.8,5.6,0,2.8-2.1,4.7-5.3,5.5a6.742,6.742,0,0,1,1.5,1.3c.9,1,3.3,4.5,4.3,5.8,1,1.2,2.3,2.5,3.6,2.6v.5a17.135,17.135,0,0,1-2.5.3,5.3,5.3,0,0,1-4.4-2.2c-1.1-1.4-3.1-4.4-4.3-5.8a4.521,4.521,0,0,0-3.2-1.9c-.3,0-.6-.1-1-.1C56.5,11.5,56.5,18.7,56.5,18.7Zm0-8.6a20.121,20.121,0,0,0,2.6.1c3.9,0,5.2-2.3,5.2-4.3,0-2.8-1.9-4.6-5.3-4.6a22.856,22.856,0,0,0-2.5.2Z" fill="#f3f4f4"/>
            <path id="Path_101" data-name="Path 101" d="M122.8,18.7c0,1.1.7,1.7,1.9,1.9v.6c-.7,0-3-.1-3.6-.1s-2.8.1-3.5.1v-.6c1.2-.2,1.9-.8,1.9-1.9V2.6c0-1-.5-1.6-1.9-1.8V.1c.7,0,2.9.1,3.5.1,1,0,3.9-.2,5.1-.2,5,0,7.8,2.1,7.8,5.6,0,2.8-2.1,4.7-5.3,5.5a6.742,6.742,0,0,1,1.5,1.3c.9,1,3.3,4.5,4.3,5.8s2.3,2.5,3.6,2.6v.5a17.136,17.136,0,0,1-2.5.3,5.3,5.3,0,0,1-4.4-2.2c-1.1-1.4-3.1-4.4-4.3-5.8a4.521,4.521,0,0,0-3.2-1.9c-.3,0-.6-.1-1-.1Zm0-8.6a20.121,20.121,0,0,0,2.6.1c3.9,0,5.2-2.3,5.2-4.3,0-2.8-1.9-4.6-5.3-4.6a21.052,21.052,0,0,0-2.5.2Z" fill="#f3f4f4"/>
            <path id="Path_102" data-name="Path 102" d="M26,20.6a3.433,3.433,0,0,0,2.5-2.3L35.2,2.1A9.623,9.623,0,0,0,35.9,0h1.9a15.444,15.444,0,0,0,.6,2.1l7.1,16.2A3.626,3.626,0,0,0,48,20.6v.5H40.7v-.5c1-.3,1.4-.8,1.4-1.3a4.292,4.292,0,0,0-.4-1.4l-1.5-3.5H32.4L31,17.9a3.452,3.452,0,0,0-.3,1.3c0,.6.3,1,1.5,1.4v.5h-6Zm13.4-7.8L36.1,5,33,12.8Z" fill="#f3f4f4"/>
            <path id="Path_103" data-name="Path 103" d="M92.7,20.6a3.768,3.768,0,0,0,2.6-2.3L102,2.1a15.443,15.443,0,0,0,.6-2.1h1.9a15.445,15.445,0,0,0,.6,2.1l7.1,16.2a3.626,3.626,0,0,0,2.5,2.3v.5h-7.3v-.5c1-.3,1.4-.8,1.4-1.3a4.293,4.293,0,0,0-.4-1.4l-1.5-3.5H99l-1.4,3.5a3.452,3.452,0,0,0-.3,1.3c0,.6.3,1,1.5,1.4v.5h-6Zm13.4-7.8L102.8,5l-3.1,7.8Z" fill="#f3f4f4"/>
          </g>
        </g>
      </g>
    </g>
    <g id="Group_3" data-name="Group 3" transform="translate(228.167 435)">
      <path id="Path_45" data-name="Path 45" d="M.4.4H49.841V19.078c0,8.536-3.212,26.707-24.509,40.229,0,0-23.157-9.635-24.932-40.229V.4Z" transform="translate(-0.062 -0.062)" fill="#a51c30"/>
      <path id="Path_46" data-name="Path 46" d="M25.186,59.5l-.169-.085C24.848,59.33,1.775,49.357,0,19.016V0H50.033V18.931c0,7.437-2.366,26.369-24.678,40.4l-.169.169ZM.592.592v18.34c1.69,28.735,22.65,39.046,24.594,39.891C47.075,44.878,49.441,26.284,49.441,18.931V.592Z" fill="#1e1e1e"/>
      <path id="Path_47" data-name="Path 47" d="M38.057,25.517s-.423,1.437-2.366,0l-6.761-.169a.777.777,0,0,1-1.014-.676A14.979,14.979,0,0,0,28,22.644s0-.507-.845-.507c0,0-1.352.169-1.437-1.014,0,0-.254-1.268,1.606-1.268,0,0,.592.254.676-.507,0,0-.085-5.24,0-5.578,0,0,.169-.507-.761-.592,0,0-1.352.254-1.521-.592,0,0-.085-1.352.845-1.437,0,0,1.1.085,1.268-.169,0,0,.254.169.169-.761V8.53s.085-.423.845-.423a8.094,8.094,0,0,0,1.437,0,5.006,5.006,0,0,0,.338-.507,2.607,2.607,0,0,1,.761.085s.93.676,4.648.423c0,0,.592,0,.676.169,0,0,.676.507,1.1,0a20.216,20.216,0,0,1,2.366-.085,4.117,4.117,0,0,0,3.3-.592l.423.085s.592.93.93.676a4.434,4.434,0,0,1,1.437.085,3.185,3.185,0,0,1,.169,2.2s-.254.676.93.676c0,0,1.352-.254,1.183,1.014,0,0,.338,1.437-1.859,1.183a1.852,1.852,0,0,0-.254.676s-.085,4.564-.085,5.071c0,0-.085.676.93.676,0,0,1.268-.085,1.352,1.1,0,0,.169,1.521-1.69,1.268,0,0-.592.085-.676.423l-.085,2.028s.085,1.014-1.1.761c-.169,0-6.254.085-6.761,0,.085-.169-.169-.169-.254,0M25.126,32.194a.577.577,0,0,0,.338-.338,4.361,4.361,0,0,0,.93-.169l2.62.169s2.62.169,3.719-.592a2.719,2.719,0,0,1,.676.085s.592.085.676.338h1.521s.845.254.845.845v.761s-.169,1.437.254,1.521h1.183s.93.423.845,1.014a.931.931,0,0,1-.845.93,3.311,3.311,0,0,1-1.1.169,2.113,2.113,0,0,0-.338.845l-.085,5.24s-.085.592.761.507c0,0,1.268-.085,1.606.592,0,0,.338,1.183-.338,1.352l-.507.254-1.014.169s-.423.085-.507.761v1.437s0,.93-.676.93l-1.1.085s-.254.254-.845.085c0,0-6.846.085-7.015.085l-.845.169s-.845.761-1.606.169l-.592-.423a4.765,4.765,0,0,1-.592.085c-.169-.085-7.522.085-7.522.085s-1.606.169-1.69-.338a18.414,18.414,0,0,1-.085-2.282s0-.592-.338-.676c0,0-1.606-.085-1.606-.254,0,0-.845-.592-.592-1.183a1.323,1.323,0,0,1,1.1-.845s1.268.169,1.268-.169a2.339,2.339,0,0,0,.085-.676s.085-4.733,0-5.071c0,0,.085-.592-.423-.592a1.249,1.249,0,0,1-.93-.085s-.93,0-1.183-.676a1.038,1.038,0,0,1,.085-.845,1.456,1.456,0,0,1,1.69-.592s.676.169.845-.338V32.786s-.169-.507.845-.845c0,0,1.268.338,1.69-.254,0,0,.423-.845.845-.254,0,0,.761.761,2.874.676,0,0,3.634-.254,3.719-.169a3.063,3.063,0,0,1,1.1.423l.254-.169Zm-10.9-6.677s-.423,1.437-2.366,0L5.1,25.348a.777.777,0,0,1-1.014-.676,14.979,14.979,0,0,0,.085-2.028s.085-.507-.845-.507c0,0-1.352.169-1.437-1.014,0,0-.254-1.268,1.606-1.268,0,0,.592.254.676-.507,0,0-.085-5.24-.085-5.578,0,0,.169-.507-.761-.592,0,0-1.352.254-1.521-.592,0,0-.085-1.352.761-1.437,0,0,1.1.085,1.268-.169,0,0,.254.169.169-.845L4.081,8.53s.085-.423.761-.423a8.094,8.094,0,0,0,1.437,0A5.006,5.006,0,0,0,6.617,7.6a2.607,2.607,0,0,1,.761.085s.93.676,4.648.423c0,0,.592,0,.676.169,0,0,.676.507,1.1,0a21.206,21.206,0,0,1,2.451-.085,4.117,4.117,0,0,0,3.3-.592l.423.085s.592.93.93.676a4.434,4.434,0,0,1,1.437.085,3.185,3.185,0,0,1,.169,2.2s-.254.676.93.676c0,0,1.352-.254,1.183,1.014,0,0,.338,1.437-1.859,1.183a1.852,1.852,0,0,0-.254.676s0,4.564-.085,5.071c0,0,0,.676.93.676,0,0,1.268-.085,1.352,1.1,0,0,.169,1.521-1.69,1.268,0,0-.592.085-.676.423l-.085,2.028a.793.793,0,0,1-1.1.761c-.169,0-6.254.085-6.761,0,.169-.169-.085-.169-.169,0" transform="translate(-0.278 -1.177)" fill="#fff"/>
      <path id="Path_48" data-name="Path 48" d="M42.437,25.517s-.423,1.437-2.366,0l-6.761-.169a.777.777,0,0,1-1.014-.676,14.979,14.979,0,0,0,.085-2.028s0-.507-.845-.507c0,0-1.352.169-1.437-1.014,0,0-.254-1.268,1.606-1.268,0,0,.592.254.676-.507,0,0-.085-5.24,0-5.578,0,0,.169-.507-.761-.592,0,0-1.352.254-1.521-.592,0,0-.085-1.352.845-1.437,0,0,1.1.085,1.268-.169,0,0,.254.169.169-.761V8.53s.085-.423.845-.423a8.094,8.094,0,0,0,1.437,0A5.005,5.005,0,0,0,35,7.6a2.607,2.607,0,0,1,.761.085s.93.676,4.648.423c0,0,.592,0,.676.169,0,0,.676.507,1.1,0a20.216,20.216,0,0,1,2.366-.085,4.117,4.117,0,0,0,3.3-.592l.423.085s.592.93.93.676a4.434,4.434,0,0,1,1.437.085,3.185,3.185,0,0,1,.169,2.2s-.254.676.93.676c0,0,1.352-.254,1.183,1.014,0,0,.338,1.437-1.859,1.183a1.852,1.852,0,0,0-.254.676s-.085,4.564-.085,5.071c0,0-.085.676.93.676,0,0,1.268-.085,1.352,1.1,0,0,.169,1.521-1.69,1.268,0,0-.592.085-.676.423l-.085,2.028s.085,1.014-1.1.761c-.169,0-6.254.085-6.761,0,.085-.169-.169-.169-.254,0" transform="translate(-4.659 -1.177)" fill="#1e1e1e"/>
      <path id="Path_49" data-name="Path 49" d="M42.437,25.517s-.423,1.437-2.366,0l-6.761-.169a.777.777,0,0,1-1.014-.676,14.979,14.979,0,0,0,.085-2.028s0-.507-.845-.507c0,0-1.352.169-1.437-1.014,0,0-.254-1.268,1.606-1.268,0,0,.592.254.676-.507,0,0-.085-5.24,0-5.578,0,0,.169-.507-.761-.592,0,0-1.352.254-1.521-.592,0,0-.085-1.352.845-1.437,0,0,1.1.085,1.268-.169,0,0,.254.169.169-.761V8.53s.085-.423.845-.423a8.094,8.094,0,0,0,1.437,0A5.005,5.005,0,0,0,35,7.6a2.607,2.607,0,0,1,.761.085s.93.676,4.648.423c0,0,.592,0,.676.169,0,0,.676.507,1.1,0a20.216,20.216,0,0,1,2.366-.085,4.117,4.117,0,0,0,3.3-.592l.423.085s.592.93.93.676a4.434,4.434,0,0,1,1.437.085,3.185,3.185,0,0,1,.169,2.2s-.254.676.93.676c0,0,1.352-.254,1.183,1.014,0,0,.338,1.437-1.859,1.183a1.852,1.852,0,0,0-.254.676s-.085,4.564-.085,5.071c0,0-.085.676.93.676,0,0,1.268-.085,1.352,1.1,0,0,.169,1.521-1.69,1.268,0,0-.592.085-.676.423l-.085,2.028s.085,1.014-1.1.761c-.169,0-6.254.085-6.761,0,.085-.169-.169-.169-.254,0Z" transform="translate(-4.659 -1.177)" fill="none" stroke="#1e1e1e" stroke-width="0.164"/>
      <path id="Path_50" data-name="Path 50" d="M35.63,9.2s.085.845.085,1.014-.085,11.579-.085,11.579a1.534,1.534,0,0,1-.676,1.352s-.169.085-.254-.507l.085-12S34.869,9.2,35.63,9.2" transform="translate(-5.373 -1.425)" fill="#fff"/>
      <path id="Path_51" data-name="Path 51" d="M35.63,9.2s.085.845.085,1.014-.085,11.579-.085,11.579a1.534,1.534,0,0,1-.676,1.352s-.169.085-.254-.507l.085-12S34.869,9.2,35.63,9.2Z" transform="translate(-5.373 -1.425)" fill="none" stroke="#1e1e1e" stroke-width="0.172"/>
      <path id="Path_52" data-name="Path 52" d="M33.643,23.167s.085-11.325,0-11.494v.169a6.741,6.741,0,0,1,.423-2.789s-.169-.676-1.1.169v1.606s0,.93-.845.845a2.647,2.647,0,0,0-1.437.423s-.254.845.676.761c0,0,1.437,0,1.521.592L32.8,19.533s.338,1.014-.845,1.014c0,0-1.352-.085-1.352.761,0,0,.254.676,1.437.507,0,0,.845.169.845.93v1.521s-.085.592.676.676h6.254a.331.331,0,0,0,.338-.338s0-.338-.507-.338l-5.071-.085s-.845.254-.93-1.014" transform="translate(-4.738 -1.362)" fill="#fff"/>
      <path id="Path_53" data-name="Path 53" d="M35.6,25.7s-.169.592.423.423H40.16l1.1.254s1.183-.254,0-.93H37.286a8.185,8.185,0,0,1-.93-.254s-.423-.169-.761.507" transform="translate(-5.508 -3.899)" fill="#fff"/>
      <path id="Path_54" data-name="Path 54" d="M35.6,25.7s-.169.592.423.423H40.16l1.1.254s1.183-.254,0-.93H37.286a8.185,8.185,0,0,1-.93-.254S35.934,25.028,35.6,25.7Z" transform="translate(-5.508 -3.899)" fill="none" stroke="#1e1e1e" stroke-width="0.172"/>
      <path id="Path_55" data-name="Path 55" d="M43.575,26.323s-.761,0-.676,1.014a.769.769,0,1,0,1.521-.169s-.507-1.014-.845-.845m.592-.423s.338-.423.592-.423c0,0,3.972.338,4.648-.085a2.235,2.235,0,0,1,.761,0s.592.507.592.761c0,0,0,.338-.761.169H45.265s-1.268.338-1.1-.423" transform="translate(-6.642 -3.926)" fill="#fff"/>
      <path id="Path_56" data-name="Path 56" d="M44.4,25.9s.338-.423.592-.423c0,0,3.972.338,4.648-.085a2.235,2.235,0,0,1,.761,0s.592.507.592.761c0,0,0,.338-.761.169H45.5s-1.268.338-1.1-.423Z" transform="translate(-6.872 -3.926)" fill="none" stroke="#1e1e1e" stroke-width="0.172"/>
      <path id="Path_57" data-name="Path 57" d="M43.653,24.542s0-.338.592-.338h5.578s.507.254.507-.676c0,0,.169-4.395.254-9.212,0-1.437.085-2.958,0-4.31a7.778,7.778,0,0,0-.254-.761.446.446,0,0,1,.676-.423s.592,0,.423.93V11.1s-.085.592.93.423c0,0,1.1.169,1.1.592,0,0,.338.845-.93.761H51.6a.642.642,0,0,0-.254.761l-.085,5.832s-.085,1.014.845.93c0,0,1.014,0,1.183.254,0,0,.676,1.014-.761.93a5.61,5.61,0,0,0-1.1.085s-.169.169-.254,2.113c0,0,.085,1.1-.761,1.014,0,0-5.578.085-6.085,0a.415.415,0,0,1-.676-.254m-7.184-15.8L36.3,21.584s0,.592.93.676a8.015,8.015,0,0,0,1.437,0h2.7s.507.507.507-.169c0,0,.338-10.4.169-12.593,0,0,0-.93-.761-.93,0,0-3.043.254-3.3,0l-1.1-.169s-.507,0-.423.338" transform="translate(-5.621 -1.301)" fill="#fff"/>
      <path id="Path_58" data-name="Path 58" d="M43.938,9.433s-.085,6.085-.085,6.254l-.085,5.071L43.6,22.533s.254.338.423.085a5.855,5.855,0,0,1,2.113-.169s2.535.254,3.127-.169c0,0,.423.169.507-.423,0,0,.169-11.241.085-11.41a11.344,11.344,0,0,0,.085-1.775s0-.338-.676,0c0,0,.085.338-3.719.169-.085,0-1.606-.085-1.606.592m6.339-.169V21.941s.338,1.1.845,1.014a2.339,2.339,0,0,0,.085-.676l.169-12.086s-.423-1.859-1.1-.93" transform="translate(-6.751 -1.32)" fill="#fff"/>
      <path id="Path_59" data-name="Path 59" d="M51.5,9.352V22.03s.338,1.1.845,1.014a2.339,2.339,0,0,0,.085-.676L52.6,10.282s-.423-1.859-1.1-.93Z" transform="translate(-7.975 -1.408)" fill="none" stroke="#1e1e1e" stroke-width="0.172"/>
      <path id="Path_60" data-name="Path 60" d="M40.611,13.834c-.085-.338.676-.338.676-.338l.423.085a3,3,0,0,1,.592.085.483.483,0,0,1-.169.676l-.169.507v4.226a5.762,5.762,0,0,0,.423.592c0,.338-.423.254-.423.254H40.78c-.338,0-.254-.423-.254-.423.423-.169.507-.93.507-.93V14.595l-.423-.761ZM35.2,17.553l-.085,1.268.338.592c.254.338-.169.592-.169.592l-1.268-.169c-.254-.085,0-.507,0-.507.338-.169.338-.676.338-.676V14.595c0-.169-.338-.592-.338-.592-.254,0-.169-.423-.169-.423.085-.169.761-.085.761-.085H36.3c1.606.507,1.352,1.69,1.352,1.69a1.666,1.666,0,0,1-1.1,1.606l-.085.676,1.183,1.859a.524.524,0,0,1,.169.338c-.169.423-.845,0-.845,0L35.54,17.384c-.169-.169-.338.169-.338.169m0-3.212v2.113a.74.74,0,0,0,1.183-.254c1.014-.93,0-1.859-.169-2.113s-.93,0-.93,0l-.085.254ZM26.835,33.1a.577.577,0,0,0,.338-.338,4.361,4.361,0,0,0,.93-.169l2.62.169s2.62.169,3.719-.592a2.719,2.719,0,0,1,.676.085s.592.085.676.338h1.521s.845.254.845.845V34.2s-.169,1.437.254,1.521H39.6s.93.423.845,1.014a.931.931,0,0,1-.845.93,3.311,3.311,0,0,1-1.1.169,2.113,2.113,0,0,0-.338.845l-.085,5.24s-.085.592.761.507c0,0,1.268-.085,1.606.592,0,0,.338,1.183-.338,1.352l-.507.254-1.014.169s-.423.085-.507.761v1.437s0,.93-.676.93l-1.1.085s-.254.254-.845.085c0,0-6.846.085-7.015.085l-.845.169s-.845.761-1.606.169l-.592-.423a4.765,4.765,0,0,1-.592.085c-.169-.085-7.522.085-7.522.085s-1.606.169-1.69-.338a18.414,18.414,0,0,1-.085-2.282s0-.592-.338-.676c0,0-1.606-.085-1.606-.254,0,0-.845-.592-.592-1.183a1.323,1.323,0,0,1,1.1-.845s1.268.169,1.268-.169a2.339,2.339,0,0,0,.085-.676s.085-4.733,0-5.071c0,0,.085-.592-.423-.592a1.249,1.249,0,0,1-.93-.085s-.93,0-1.183-.676a1.038,1.038,0,0,1,.085-.845,1.456,1.456,0,0,1,1.69-.592s.676.169.845-.338V33.7s-.169-.507.845-.845c0,0,1.268.338,1.69-.254,0,0,.423-.845.845-.254,0,0,.761.761,2.874.676,0,0,3.634-.254,3.719-.169a3.063,3.063,0,0,1,1.1.423l.254-.169Z" transform="translate(-1.987 -2.087)" fill="#1e1e1e"/>
      <path id="Path_61" data-name="Path 61" d="M26.835,36.407a.577.577,0,0,0,.338-.338,4.361,4.361,0,0,0,.93-.169l2.62.169s2.62.169,3.719-.592a2.719,2.719,0,0,1,.676.085s.592.085.676.338h1.521s.845.254.845.845v.676s-.169,1.437.254,1.521H39.6s.93.423.845,1.014a.931.931,0,0,1-.845.93,3.311,3.311,0,0,1-1.1.169,2.113,2.113,0,0,0-.338.845l-.085,5.24s-.085.592.761.507c0,0,1.268-.085,1.606.592,0,0,.338,1.183-.338,1.352l-.507.254-1.014.169s-.423.085-.507.761v1.437s0,.93-.676.93l-1.1.085s-.254.254-.845.085c0,0-6.846.085-7.015.085l-.845.169s-.845.761-1.606.169L25.4,53.31a4.765,4.765,0,0,1-.592.085c-.169-.085-7.522.085-7.522.085s-1.606.169-1.69-.338a18.414,18.414,0,0,1-.085-2.282s0-.592-.338-.676c0,0-1.606-.085-1.606-.254,0,0-.845-.592-.592-1.183a1.323,1.323,0,0,1,1.1-.845s1.268.169,1.268-.169a2.339,2.339,0,0,0,.085-.676s.085-4.733,0-5.071c0,0,.085-.592-.423-.592a1.249,1.249,0,0,1-.93-.085s-.93,0-1.183-.676a1.038,1.038,0,0,1,.085-.845,1.456,1.456,0,0,1,1.69-.592s.761.169.845-.338V36.914s-.169-.507.845-.845c0,0,1.268.338,1.69-.254,0,0,.423-.845.845-.254,0,0,.761.761,2.874.676,0,0,3.634-.254,3.719-.169a3.063,3.063,0,0,1,1.1.423l.254-.085Z" transform="translate(-1.987 -5.474)" fill="none" stroke="#1e1e1e" stroke-width="0.164"/>
      <path id="Path_62" data-name="Path 62" d="M30.263,52.41a1.568,1.568,0,0,1,.845-.169c.338.085,4.986-.085,4.986-.085s2.028.169,2.366-.169l.507-.169a1.169,1.169,0,0,0,.169-.592V49.79l.085-.423V38.3a1.648,1.648,0,0,0-.338-1.352s0-.338.169-.254.085,0,.085,0,.676-.169.845.085a2.163,2.163,0,0,1,0,1.521s-.085,1.183.507,1.183a.627.627,0,0,0,.676.085s1.014.085,1.014.423c0,0,0,.761-.676.592l-.93.085a.781.781,0,0,0-.592.845c.085.761,0,6.254,0,6.254s0,.676,1.014.592c0,0,1.268-.085,1.268.338,0,0,.338.761-.592.845,0,0-1.69-.085-1.521.423a11.575,11.575,0,0,1-.169,1.352s.169.93,0,1.1c0,0-.085.507-1.183.423,0,0-6.846,0-7.944.085-.085.169-.761.085-.592-.507m-1.183-.761a.77.77,0,0,1,.676.761c0,.676,0,1.014-.338,1.1a.722.722,0,0,1-.93-.592.94.94,0,0,1,.592-1.268" transform="translate(-4.402 -5.673)" fill="#fff"/>
      <path id="Path_63" data-name="Path 63" d="M30.1,53.858s.676-.507,1.014-.423a38.443,38.443,0,0,0,4.733.085c1.1-.169.423-.085.423-.085a2.312,2.312,0,0,0,1.268-.338.376.376,0,0,1,.423.169l.592.676s0,.423-.676.338c0,0-6.508,0-6.761.085.085,0-1.1.169-1.014-.507" transform="translate(-4.66 -8.22)" fill="#fff"/>
      <path id="Path_64" data-name="Path 64" d="M30.1,53.858s.676-.507,1.014-.423a38.443,38.443,0,0,0,4.733.085c1.1-.169.423-.085.423-.085a2.312,2.312,0,0,0,1.268-.338.376.376,0,0,1,.423.169l.592.676s0,.423-.676.338c0,0-6.508,0-6.761.085.085,0-1.1.169-1.014-.507Z" transform="translate(-4.66 -8.22)" fill="none" stroke="#1e1e1e" stroke-width="0.172"/>
      <path id="Path_65" data-name="Path 65" d="M18.761,37.2s.254,0,.254.507L18.93,49.793a1.675,1.675,0,0,1-.592,1.352S18,51.568,18,50.891l.169-12.339a1.838,1.838,0,0,1,.592-1.352" transform="translate(-2.787 -5.76)" fill="#fff"/>
      <path id="Path_66" data-name="Path 66" d="M18.761,37.2s.254,0,.254.507L18.93,49.793a1.675,1.675,0,0,1-.592,1.352S18,51.568,18,50.891l.169-12.339a1.838,1.838,0,0,1,.592-1.352Z" transform="translate(-2.787 -5.76)" fill="none" stroke="#1e1e1e" stroke-width="0.172"/>
      <path id="Path_67" data-name="Path 67" d="M17.449,37.238s-.507.845-.423,1.1V51.69s-.085.93.676.676c0,0,7.015-.169,7.522,0,0,0,.676.085.423.423,0,0,0,.254-.423.169a46.739,46.739,0,0,1-6.339.169,9.026,9.026,0,0,1-2.113-.085s-.338-.085-.338-1.183a7.3,7.3,0,0,0-.085-1.268s.085-.592-.93-.676c0,0-1.437.254-1.437-.592,0,0,.169-.592,1.606-.507,0,0,1.014.169.761-.676l.085-5.916s.169-1.014-.592-1.1H15s-1.183,0-1.1-.676a1.691,1.691,0,0,1,1.606-.592s.845.169.93-.845c0,0,0-2.028.423-2.113-.085,0,.93.085.592.338" transform="translate(-2.152 -5.714)" fill="#fff"/>
      <path id="Path_68" data-name="Path 68" d="M19.346,53a2.3,2.3,0,0,0,1.521.592l5.409.085s.592.085.592.338c0,0-.085.507-.845.338l-6.592-.085-.761.085s-.507-.085.254-1.014L19.346,53Z" transform="translate(-2.865 -8.207)" fill="#fff"/>
      <path id="Path_69" data-name="Path 69" d="M19.346,53a2.3,2.3,0,0,0,1.521.592l5.409.085s.592.085.592.338c0,0-.085.507-.845.338l-6.592-.085-.761.085s-.507-.085.254-1.014L19.346,53Z" transform="translate(-2.865 -8.207)" fill="none" stroke="#1e1e1e" stroke-width="0.172"/>
      <path id="Path_70" data-name="Path 70" d="M39.4,50.022a5.246,5.246,0,0,0,.676,1.014s.423.507.338-.423L40.5,39.035a3.3,3.3,0,0,1,0-1.014l-.507-.845s-.507-.423-.507.254V49.684l-.085.338Z" transform="translate(-6.101 -5.736)" fill="#fff"/>
      <path id="Path_71" data-name="Path 71" d="M39.4,50.022a5.246,5.246,0,0,0,.676,1.014s.423.507.338-.423L40.5,39.035a3.3,3.3,0,0,1,0-1.014l-.507-.845s-.507-.423-.507.254V49.684l-.085.338Z" transform="translate(-6.101 -5.736)" fill="none" stroke="#1e1e1e" stroke-width="0.172"/>
      <path id="Path_72" data-name="Path 72" d="M27.491,44.429s0,.93-.085,1.859c-.085.507.169,2.874,0,4.057,0,0,0,.423-.845.085,0,0-5.155.085-5.24-.085,0,0-1.437.085-1.521-.676,0,0,.169-5.493.085-5.663,0,0-.085-2.958,0-3.3,0,0,.085-2.789,0-3.127a4.55,4.55,0,0,0-.085-.93s0-.423.676-.169c0,0,.254.423,1.521.254a5.9,5.9,0,0,0,1.859,0,12.425,12.425,0,0,1,2.535,0,.855.855,0,0,1,1.014.761V39.95l.254.845.254-.169L28,40.034v-2.62a.986.986,0,0,1,.845-.592,5.475,5.475,0,0,1,1.183,0,15.979,15.979,0,0,0,2.958.085A3.351,3.351,0,0,0,35.52,36.4s.507,0,.507.338a31.98,31.98,0,0,0,0,4.057s0,6.254-.169,6.677l.085,2.028s.085.845-1.352.93c0,0,.845.085-4.648-.085a3.724,3.724,0,0,0-1.859.423s-.169-.085-.169-.592a23.477,23.477,0,0,0,0-3.719l-.085-2.028h-.338Z" transform="translate(-3.066 -5.636)" fill="#fff"/>
      <path id="Path_73" data-name="Path 73" d="M21.154,37.1s.085,2.958,0,3.381v.676a1.514,1.514,0,0,0,.423.592s.169.592-.254.507a6.213,6.213,0,0,0-1.268,0s-.592,0,0-.676a2.017,2.017,0,0,0,.169-1.014s0-3.381.085-3.55c0,0,.085-.423-.169-.592h-.507l-.592.592s-.169.592-.423,0v-.338l.338-.93h.254a2.25,2.25,0,0,0,.676.338h1.859l.676-.338s.254,0,.169.423c0,0,.085.93-.423,1.014a.834.834,0,0,1-.507-.592c0-.085-.507-.423-.507.507m8.79-1.1a1.366,1.366,0,0,0-1.521,1.521s-.169,1.1,1.521,1.859c0,0,1.268.592,1.183,1.352,0,0-.169,1.352-1.521.676,0,0-.676-.338-.592-.676,0,0-.169-.423-.423-.338,0,0-.254.085-.169,1.437,0,0,0,.507.592,0l.338.085a1.5,1.5,0,0,0,2.028-.169,1.567,1.567,0,0,0,.254-2.028A3.087,3.087,0,0,0,30.2,38.533a2.49,2.49,0,0,1-1.1-1.1.86.86,0,0,1,1.352-.592,2.514,2.514,0,0,0,.676.592s.338,0,.254-.761l-.085-.592s-.085-.423-.676,0c0-.085-.507.169-.676-.085m-4.817-.845a1.064,1.064,0,0,1,.338.592,40.322,40.322,0,0,1,1.521,5.24,1.589,1.589,0,0,0,.592.676c.676.254,0,.423,0,.423a5.4,5.4,0,0,1-1.183,0c-.507-.085-.254-.254-.254-.254.169-.169,0-1.014,0-1.014a1.887,1.887,0,0,0-.423-.845c-.169-.085-.423.254-.423.254s-.423.169-.507,0a1.187,1.187,0,0,0-.338-.338c-.507,0-.676,1.183-.676,1.183.254,1.014,0,.845,0,.845-.254.338-1.014.085-1.014.085-.338-.085-.085-.338-.085-.338.423-.085.592-.592.592-.592.169-.254,1.521-5.493,1.521-5.493-.085-.085,0-.592.338-.423m-.676,2.7c0,.169-.338,1.352-.338,1.352l.254.423h.845c.169,0,.254-.169.254-.423,0-.169-.423-1.437-.423-1.437l-.169-.254-.423.338ZM14.223,25.517s-.423,1.437-2.366,0L5.1,25.348a.777.777,0,0,1-1.014-.676,14.979,14.979,0,0,0,.085-2.028s.085-.507-.845-.507c0,0-1.352.169-1.437-1.014,0,0-.254-1.268,1.606-1.268,0,0,.592.254.676-.507,0,0-.085-5.24-.085-5.578,0,0,.169-.507-.761-.592,0,0-1.352.254-1.521-.592,0,0-.085-1.352.761-1.437,0,0,1.1.085,1.268-.169,0,0,.254.169.169-.845L4.081,8.53s.085-.423.761-.423a8.094,8.094,0,0,0,1.437,0A5.006,5.006,0,0,0,6.617,7.6a2.607,2.607,0,0,1,.761.085s.93.676,4.648.423c0,0,.592,0,.676.169,0,0,.676.507,1.1,0a21.206,21.206,0,0,1,2.451-.085,4.117,4.117,0,0,0,3.3-.592l.423.085s.592.93.93.676a4.434,4.434,0,0,1,1.437.085,3.185,3.185,0,0,1,.169,2.2s-.254.676.93.676c0,0,1.352-.254,1.183,1.014,0,0,.338,1.437-1.859,1.183a1.852,1.852,0,0,0-.254.676s0,4.564-.085,5.071c0,0,0,.676.93.676,0,0,1.268-.085,1.352,1.1,0,0,.169,1.521-1.69,1.268,0,0-.592.085-.676.423l-.085,2.028a.793.793,0,0,1-1.1.761c-.169,0-6.254.085-6.761,0,.169-.169-.085-.169-.169,0" transform="translate(-0.278 -1.177)" fill="#1e1e1e"/>
      <path id="Path_74" data-name="Path 74" d="M14.223,25.517s-.423,1.437-2.366,0L5.1,25.348a.777.777,0,0,1-1.014-.676,14.979,14.979,0,0,0,.085-2.028s.085-.507-.845-.507c0,0-1.352.169-1.437-1.014,0,0-.254-1.268,1.606-1.268,0,0,.592.254.676-.507,0,0-.085-5.24-.085-5.578,0,0,.169-.507-.761-.592,0,0-1.352.254-1.521-.592,0,0-.085-1.352.761-1.437,0,0,1.1.085,1.268-.169,0,0,.254.169.169-.845L4.081,8.53s.085-.423.761-.423a8.094,8.094,0,0,0,1.437,0A5.006,5.006,0,0,0,6.617,7.6a2.607,2.607,0,0,1,.761.085s.93.676,4.648.423c0,0,.592,0,.676.169,0,0,.676.507,1.1,0a21.206,21.206,0,0,1,2.451-.085,4.117,4.117,0,0,0,3.3-.592l.423.085s.592.93.93.676a4.434,4.434,0,0,1,1.437.085,3.185,3.185,0,0,1,.169,2.2s-.254.676.93.676c0,0,1.352-.254,1.183,1.014,0,0,.338,1.437-1.859,1.183a1.852,1.852,0,0,0-.254.676s0,4.564-.085,5.071c0,0,0,.676.93.676,0,0,1.268-.085,1.352,1.1,0,0,.169,1.521-1.69,1.268,0,0-.592.085-.676.423l-.085,2.028a.793.793,0,0,1-1.1.761c-.169,0-6.254.085-6.761,0,.169-.169-.085-.169-.169,0Z" transform="translate(-0.278 -1.177)" fill="none" stroke="#1e1e1e" stroke-width="0.164"/>
      <path id="Path_75" data-name="Path 75" d="M7.43,9.2s.085.845.085,1.014S7.43,21.793,7.43,21.793a1.534,1.534,0,0,1-.676,1.352s-.169.085-.254-.507l.085-12S6.669,9.2,7.43,9.2" transform="translate(-1.007 -1.425)" fill="#fff"/>
      <path id="Path_76" data-name="Path 76" d="M7.43,9.2s.085.845.085,1.014S7.43,21.793,7.43,21.793a1.534,1.534,0,0,1-.676,1.352s-.169.085-.254-.507l.085-12S6.669,9.2,7.43,9.2Z" transform="translate(-1.007 -1.425)" fill="none" stroke="#1e1e1e" stroke-width="0.172"/>
      <path id="Path_77" data-name="Path 77" d="M5.452,23.167s.085-11.325.085-11.494c-.085-.169,0,.169,0,.169a6.741,6.741,0,0,1,.423-2.789s-.169-.676-1.1.169l-.085,1.69s0,.93-.845.845a2.647,2.647,0,0,0-1.437.423s-.254.845.676.761c0,0,1.437,0,1.521.592l-.085,6.085a.725.725,0,0,1-.761,1.014s-1.352-.085-1.352.761c0,0,.254.676,1.437.507,0,0,.845.169.761.93V24.35s-.085.592.761.676h6.254a.331.331,0,0,0,.338-.338s0-.338-.507-.338l-5.155-.169s-.845.254-.93-1.014" transform="translate(-0.381 -1.362)" fill="#fff"/>
      <path id="Path_78" data-name="Path 78" d="M7.3,25.8s-.169.592.423.423H11.86l1.1.254s1.183-.254,0-.93H8.986a8.185,8.185,0,0,1-.93-.254s-.423-.169-.761.507" transform="translate(-1.126 -3.914)" fill="#fff"/>
      <path id="Path_79" data-name="Path 79" d="M7.3,25.8s-.169.592.423.423H11.86l1.1.254s1.183-.254,0-.93H8.986a8.185,8.185,0,0,1-.93-.254s-.423-.169-.761.507Z" transform="translate(-1.126 -3.914)" fill="none" stroke="#1e1e1e" stroke-width="0.172"/>
      <path id="Path_80" data-name="Path 80" d="M15.261,26.423s-.761,0-.761,1.014a.851.851,0,0,0,.845.761.939.939,0,0,0,.676-.93s-.423-1.014-.761-.845M15.768,26s.338-.423.592-.423c0,0,3.972.338,4.648-.085a2.235,2.235,0,0,1,.761,0s.592.507.592.761c0,0,0,.338-.761.169H16.866c.085,0-1.183.338-1.1-.423" transform="translate(-2.245 -3.942)" fill="#fff"/>
      <path id="Path_81" data-name="Path 81" d="M16,26s.338-.423.592-.423c0,0,3.972.338,4.648-.085a2.235,2.235,0,0,1,.761,0s.592.507.592.761c0,0,0,.338-.761.169H17.1c.085,0-1.183.338-1.1-.423Z" transform="translate(-2.477 -3.942)" fill="none" stroke="#1e1e1e" stroke-width="0.172"/>
      <path id="Path_82" data-name="Path 82" d="M15.453,24.542s0-.338.592-.338h5.578s.507.254.507-.676c0,0,.169-4.395.254-9.212,0-1.437.085-2.958,0-4.31a1.946,1.946,0,0,0-.254-.761.446.446,0,0,1,.676-.423s.592,0,.423.93v1.437s-.085.592.93.423c0,0,1.1.169,1.1.592,0,0,.338.845-.93.761H23.4a.642.642,0,0,0-.254.761l-.085,5.832s-.085,1.014.845.93c0,0,1.014,0,1.183.254,0,0,.676,1.014-.845.93a5.61,5.61,0,0,0-1.1.085s-.169.169-.254,2.113c0,0,.085,1.1-.761,1.014,0,0-5.578.085-6.085,0a.431.431,0,0,1-.592-.338M8.269,8.738,8.1,21.584s0,.592.93.676a8.016,8.016,0,0,0,1.437,0h2.7s.507.507.507-.085c0,0,.338-10.4.169-12.593,0,0,0-.93-.761-.93,0,0-3.043.254-3.3,0L8.692,8.4s-.507,0-.423.338" transform="translate(-1.254 -1.301)" fill="#fff"/>
      <path id="Path_83" data-name="Path 83" d="M23.3,9.346V22.024s.338,1.1.845,1.014a2.339,2.339,0,0,0,.085-.676L24.4,10.276s-.423-1.944-1.1-.93" transform="translate(-3.608 -1.402)" fill="#fff"/>
      <path id="Path_84" data-name="Path 84" d="M23.3,9.346V22.024s.338,1.1.845,1.014a2.339,2.339,0,0,0,.085-.676L24.4,10.276s-.423-1.944-1.1-.93Z" transform="translate(-3.608 -1.402)" fill="none" stroke="#1e1e1e" stroke-width="0.172"/>
      <path id="Path_85" data-name="Path 85" d="M15.654,9.333s-.085,6.085-.085,6.254l-.085,5.071L15.4,22.433s.254.338.423.085a5.855,5.855,0,0,1,2.113-.169s2.535.254,3.127-.169c0,0,.423.169.507-.423,0,0,.169-11.241.085-11.41a11.344,11.344,0,0,0,.085-1.775s0-.338-.761,0c0,0,.085.338-3.719.169-.085,0-1.521,0-1.606.592" transform="translate(-2.385 -1.304)" fill="#fff"/>
      <path id="Path_86" data-name="Path 86" d="M13.431,13.835l-.338.761a28,28,0,0,1-1.352,4.648s-.085.845-.761.169c0,0-1.606-4.9-1.69-5.071L8.782,14s-.338-.423.254-.507h1.521s.507.423-.169.845a20.549,20.549,0,0,0,.93,3.127s.254.93.507.254l.845-2.874L12.417,14s-.254-.423.085-.423c0,0,.845-.085.93.254m2.282.676v4.226l-.085.338s-.423.507-.085.592c0,0-.338.254,2.535.254,0,0,1.1.169.845-1.268,0,0-.085-.507-.507.254,0,0-.085.676-1.606.423a.865.865,0,0,1-.338-.592V16.962s0-.423.676-.423c0,0,.761.507.845.254,0,0,.254-.676,0-1.014,0,0-.338,0-.423.085,0,0-.254.507-.93.169a1.534,1.534,0,0,1-.085-1.183s-.085-1.014.592-.93c0,0,.845.169.845.423,0,0,.169.507.423-.085l-.169-.592a.262.262,0,0,0-.338-.169s-1.352.169-1.521,0l-1.1.085a.443.443,0,0,0,.338.592c0,.085.085.169.085.338" transform="translate(-1.345 -2.087)" fill="#1e1e1e"/>
    </g>
  </g>
</svg>
