<svg xmlns="http://www.w3.org/2000/svg" width="648.601" height="66.847" viewBox="0 0 648.601 66.847">
  <g id="Group_1" data-name="Group 1" transform="translate(14.919)">
    <g id="Group_3" data-name="Group 3" transform="translate(0 8.683)">
      <path id="Path_1" data-name="Path 1" d="M57.242,37.047a33.984,33.984,0,0,1-5.589.5c-8.005,0-9.924-5.347-9.924-8.217A8.912,8.912,0,0,1,51.2,21.006a13.911,13.911,0,0,1,3.534.453,4.26,4.26,0,0,0,.831.091,1.933,1.933,0,0,0,1.208-.423h.71l.242,5.136h-.71a5.438,5.438,0,0,0-1.284-2.809,6.465,6.465,0,0,0-4.531-1.8c-3.67,0-6.132,3.293-6.132,7.25,0,4.35,2.583,7.688,6.344,7.688,1.964,0,3.021-.68,3.021-2.22V33.332c0-.876-.121-2.13-2.205-2.13h-.921v-.71h8.715v.71h-.876a2.039,2.039,0,0,0-1.9,2.175Z" transform="translate(21.302 10.713)" fill="#a51c30"/>
      <path id="Path_2" data-name="Path 2" d="M63.253,29.2h2.084a3.338,3.338,0,0,0,3.791-3.67c0-2.13-.967-3.58-3.383-3.58H63.253Zm-2.93-4.531c0-2.387-.921-2.553-2.583-2.719v-.71h7.945c1.254,0,6.51,0,6.51,4.169,0,1.51-1.088,3.217-3.67,3.957,1.661.8,2.417,1.8,4.667,4.879a4.108,4.108,0,0,0,3.746,2.22v.71H72.18a37.023,37.023,0,0,1-3.5-4.531c-1.964-2.7-2.991-2.7-4.048-2.7H63.253v3.716c0,2.417.876,2.583,2.583,2.764v.71h-8.1v-.71c1.707-.166,2.583-.332,2.583-2.764Z" transform="translate(29.474 10.842)" fill="#a51c30"/>
      <path id="Path_3" data-name="Path 3" d="M83.174,29.871l-2.387-6.586-2.462,6.586Zm-6.3,4.169a3.232,3.232,0,0,0-.242,1.088c0,1.088,1.208,1.344,1.707,1.435v.71H73.16v-.71c1.51-.332,1.964-.68,3.021-3.429L80.712,21.05h2.266l4.531,12.22c.906,2.507,1.284,3.127,3.293,3.293v.71H83.174v-.71c.921-.091,1.873-.211,1.873-1.088a3.187,3.187,0,0,0-.287-1.133l-1.269-3.383h-5.5Z" transform="translate(37.345 10.745)" fill="#a51c30"/>
      <path id="Path_4" data-name="Path 4" d="M93.583,33.759c0,2.009.166,2.719,2.84,2.719,2.205,0,7.1-.71,7.1-7.054,0-4.8-2.719-7.462-6.8-7.462H93.583ZM90.7,24.7c0-2.387-.906-2.553-2.628-2.719v-.71h8.64a10.664,10.664,0,0,1,6.842,1.662,7.7,7.7,0,0,1-.332,12.854,12.34,12.34,0,0,1-6.51,1.42H88.07v-.71c1.873-.166,2.628-.378,2.628-2.764Z" transform="translate(44.956 10.83)" fill="#a51c30"/>
      <path id="Path_5" data-name="Path 5" d="M106.113,24.659c0-2.387-.906-2.553-2.613-2.719v-.71h8.051v.71c-1.722.166-2.628.332-2.628,2.719v5.589a8.459,8.459,0,0,0,.71,4.093,3.972,3.972,0,0,0,3.338,1.964,6.223,6.223,0,0,0,5.12-3.172V24.659c0-2.387-.665-2.674-2.628-2.84V21.23h8.172v.71c-1.722.166-2.628.332-2.628,2.719v9.063c0,2.417.921,2.583,2.628,2.764v.71h-5.558V34.3a6.646,6.646,0,0,1-5.83,3.2,6.042,6.042,0,0,1-5.377-2.719,7.3,7.3,0,0,1-.755-3.837Z" transform="translate(52.833 10.837)" fill="#a51c30"/>
      <path id="Path_6" data-name="Path 6" d="M130.379,29.871l-2.371-6.586-2.462,6.586Zm-6.3,4.169a3.021,3.021,0,0,0-.257,1.088c0,1.088,1.223,1.344,1.722,1.435v.71H120.38v-.71c1.51-.332,1.964-.68,3.021-3.429l4.531-12.084h2.251l4.531,12.22c.921,2.507,1.3,3.127,3.293,3.293v.71h-7.628v-.71c.921-.091,1.873-.211,1.873-1.088a3.308,3.308,0,0,0-.287-1.133l-1.223-3.368H125.2Z" transform="translate(61.449 10.745)" fill="#a51c30"/>
      <path id="Path_7" data-name="Path 7" d="M142.959,34c0,2.417.921,2.583,2.583,2.764v.71H137.37v-.71C139.077,36.6,140,36.429,140,34V22.563h-2.507a3.021,3.021,0,0,0-3.127,3.021H133.7l.121-4.924h.71a3.187,3.187,0,0,0,2.462.8h8.972a3.172,3.172,0,0,0,2.462-.8h.71l.121,5.045h-.665a3.021,3.021,0,0,0-3.142-3.021h-2.492Z" transform="translate(68.248 10.546)" fill="#a51c30"/>
      <path id="Path_8" data-name="Path 8" d="M153.068,33.828c0,2.674.332,2.674,1.994,2.674h2.462a3.489,3.489,0,0,0,3.67-2.387h.755l-.755,3.021H147.6v-.71c1.918-.166,2.628-.378,2.628-2.764V24.6c0-2.3-.71-2.553-2.628-2.719v-.71h13.352l.257,3.021h-.755c-.453-2.3-2.175-2.3-3.595-2.3h-3.791v6.842h2.84c2.417,0,2.538-1.3,2.628-2.16h.71V31.94h-.71c-.076-.921-.121-2.175-2.628-2.175h-2.84Z" transform="translate(75.344 10.806)" fill="#a51c30"/>
      <path id="Path_9" data-name="Path 9" d="M178.767,25.78h-.68c-.287-2.538-1.51-4.124-3.912-4.124a2.553,2.553,0,0,0-2.809,2.371c0,1.375.71,1.8,4.214,3.837,2.93,1.707,3.927,3.459,3.927,5.256a4.894,4.894,0,0,1-5.211,4.531,5.619,5.619,0,0,1-3.021-.8,1.511,1.511,0,0,0-.665-.166.725.725,0,0,0-.74.589h-.71V32.139h.71c.453,2.507,1.661,4.758,4.29,4.758a2.9,2.9,0,0,0,3.021-2.794c0-1.843-1.254-2.583-4.29-4.335-1.707-1.012-3.58-2.251-3.58-4.531a4.275,4.275,0,0,1,4.7-4.229,4.97,4.97,0,0,1,1.51.211,5.317,5.317,0,0,0,1.586.378,1.4,1.4,0,0,0,.906-.378h.68Z" transform="translate(86.349 10.712)" fill="#a51c30"/>
      <path id="Path_10" data-name="Path 10" d="M195.7,26.383h-.725a6.45,6.45,0,0,0-1.088-2.462,5.09,5.09,0,0,0-4.335-2.205c-4.124,0-6.042,3.867-6.042,7.386,0,4.954,3.338,7.341,6.344,7.341a6.978,6.978,0,0,0,5.634-3.021l.544.408a7.4,7.4,0,0,1-7.1,3.806,8.368,8.368,0,0,1-8.67-8.172,8.806,8.806,0,0,1,8.761-8.5,18.609,18.609,0,0,1,3.836.5,7.734,7.734,0,0,0,.952.121,1.646,1.646,0,0,0,.921-.423h.665Z" transform="translate(92.015 10.699)" fill="#a51c30"/>
      <path id="Path_11" data-name="Path 11" d="M197.378,24.659c0-2.387-.921-2.553-2.6-2.719v-.71h8.1v.71c-1.707.166-2.628.332-2.628,2.719v3.927h9.259V24.659c0-2.387-.921-2.553-2.628-2.719v-.71H215v.71c-1.707.166-2.613.332-2.613,2.719v9.063c0,2.417.906,2.583,2.613,2.764v.71h-8.126v-.71c1.707-.166,2.628-.332,2.628-2.764V29.749h-9.259v3.957c0,2.417.906,2.583,2.628,2.764v.71h-8.1v-.71c1.722-.166,2.6-.332,2.6-2.764Z" transform="translate(99.427 10.837)" fill="#a51c30"/>
      <path id="Path_12" data-name="Path 12" d="M221.815,21.73c-4.214,0-6.132,3.5-6.132,7.673,0,4.531,2.371,7.552,6.132,7.552,2.749,0,6.208-1.752,6.208-7.552S224.353,21.73,221.815,21.73Zm0,15.935c-5.755,0-9.425-4.124-9.425-8.338,0-4.531,3.957-8.338,9.289-8.338s9.727,3.55,9.727,8.368c-.045,4.259-3.837,8.262-9.652,8.262Z" transform="translate(108.416 10.714)" fill="#a51c30"/>
      <path id="Path_13" data-name="Path 13" d="M238.455,21.73c-4.214,0-6.132,3.5-6.132,7.673,0,4.531,2.371,7.552,6.132,7.552,2.749,0,6.223-1.752,6.223-7.552S241.068,21.73,238.455,21.73Zm0,15.935c-5.755,0-9.425-4.124-9.425-8.338,0-4.531,3.973-8.338,9.3-8.338s9.712,3.55,9.712,8.368c-.03,4.259-3.837,8.262-9.637,8.262Z" transform="translate(116.91 10.714)" fill="#a51c30"/>
      <path id="Path_14" data-name="Path 14" d="M251.218,34.633c0,1.329.468,1.631,1.964,1.631H256.1c2.009,0,2.22-.453,3.459-3.5h.755l-1.284,4.426H245.75v-.71c1.722-.166,2.628-.332,2.628-2.764V24.649c0-2.387-.906-2.553-2.628-2.719v-.71h8.1v.71c-2.009.166-2.628.589-2.628,2.719Z" transform="translate(125.445 10.832)" fill="#a51c30"/>
      <path id="Path_15" data-name="Path 15" d="M271.162,23.759c-3.4,0-4.939,2.825-4.939,6.163,0,3.686,1.918,6.042,4.939,6.042,2.22,0,5-1.4,5-6.042S273.262,23.759,271.162,23.759Zm0,12.809a7.114,7.114,0,0,1-7.552-6.706,7.1,7.1,0,0,1,7.552-6.706c4.32,0,7.809,2.855,7.809,6.752-.136,3.414-3.2,6.616-7.854,6.616Z" transform="translate(134.562 11.812)" fill="#a51c30"/>
      <path id="Path_16" data-name="Path 16" d="M280.706,33.4c0,1.873.6,2.084,2.084,2.22v.574h-6.6V35.62c1.51-.136,2.115-.317,2.115-2.22V26.089c0-1.9-.74-2.039-2.115-2.175V23.34h10.664l.106,2.538h-.574c-.181-.831-.408-1.979-2.779-1.979h-2.885v5.226h2.553c1.737,0,2.205-.529,2.341-1.752h.574V31.9h-.574c0-1.1-.2-1.813-2.341-1.813h-2.553Z" transform="translate(140.983 11.914)" fill="#a51c30"/>
      <path id="Path_17" data-name="Path 17" d="M298.133,33.828c0,2.674.332,2.674,2.009,2.674H302.6a3.489,3.489,0,0,0,3.67-2.387h.74l-.74,3.021H292.68v-.71c1.918-.166,2.628-.378,2.628-2.764V24.6c0-2.3-.71-2.553-2.628-2.719v-.71h13.352l.242,3.021h-.755c-.438-2.3-2.16-2.3-3.58-2.3h-3.791v6.842h2.84c2.417,0,2.538-1.3,2.628-2.16h.71V31.94h-.71c-.091-.921-.136-2.175-2.628-2.175h-2.84Z" transform="translate(149.401 10.806)" fill="#a51c30"/>
      <path id="Path_18" data-name="Path 18" d="M312.188,33.759c0,2.009.181,2.719,2.84,2.719,2.22,0,7.1-.71,7.1-7.054,0-4.8-2.719-7.462-6.8-7.462h-3.142ZM309.3,24.7c0-2.387-.906-2.553-2.613-2.719v-.71h8.625a10.679,10.679,0,0,1,6.842,1.662,7.706,7.706,0,0,1-.332,12.854,12.31,12.31,0,0,1-6.495,1.42h-8.625v-.71c1.873-.166,2.613-.378,2.613-2.764Z" transform="translate(156.552 10.83)" fill="#a51c30"/>
      <path id="Path_19" data-name="Path 19" d="M324.588,24.659c0-2.387-.921-2.553-2.628-2.719v-.71h8.051v.71c-1.707.166-2.628.332-2.628,2.719v5.589a8.519,8.519,0,0,0,.68,4.078,4,4,0,0,0,3.338,1.964,6.223,6.223,0,0,0,5.12-3.172V24.659c0-2.387-.665-2.674-2.628-2.84V21.23h8.172v.71c-1.707.166-2.628.332-2.628,2.719v9.063c0,2.417.921,2.583,2.628,2.764v.71h-5.558V34.3a6.661,6.661,0,0,1-5.785,3.2,6.042,6.042,0,0,1-5.377-2.719,7.326,7.326,0,0,1-.755-3.837Z" transform="translate(164.347 10.837)" fill="#a51c30"/>
      <path id="Path_20" data-name="Path 20" d="M354.712,26.383h-.74a6.526,6.526,0,0,0-1.087-2.462,5.09,5.09,0,0,0-4.335-2.205c-4.139,0-6.042,3.867-6.042,7.386,0,4.954,3.338,7.341,6.329,7.341a6.993,6.993,0,0,0,5.634-3.021l.544.408a7.416,7.416,0,0,1-7.084,3.806,8.368,8.368,0,0,1-8.67-8.172,8.806,8.806,0,0,1,8.761-8.5,18.654,18.654,0,0,1,3.837.5,7.417,7.417,0,0,0,.952.121,1.616,1.616,0,0,0,.921-.423h.665Z" transform="translate(173.178 10.699)" fill="#a51c30"/>
      <path id="Path_21" data-name="Path 21" d="M363.124,29.871l-2.371-6.586-2.462,6.586Zm-6.3,4.169a3.022,3.022,0,0,0-.257,1.088c0,1.088,1.223,1.344,1.707,1.435v.71H353.11v-.71c1.51-.332,1.964-.68,3.021-3.429l4.531-12.084h2.251l4.531,12.22c.906,2.507,1.3,3.127,3.293,3.293v.71h-7.462v-.71c.921-.091,1.888-.211,1.888-1.088a3.022,3.022,0,0,0-.3-1.133l-1.344-3.383h-5.558Z" transform="translate(180.248 10.745)" fill="#a51c30"/>
      <path id="Path_22" data-name="Path 22" d="M375.5,34c0,2.417.921,2.583,2.6,2.764v.71H369.93v-.71c1.707-.166,2.628-.332,2.628-2.764V22.563h-2.507a3.021,3.021,0,0,0-3.127,3.021h-.665l.121-4.924h.695a3.187,3.187,0,0,0,2.462.8h8.972a3.142,3.142,0,0,0,2.462-.8h.725l.121,4.924h-.665a3.021,3.021,0,0,0-3.127-3.021h-2.507Z" transform="translate(186.96 10.546)" fill="#a51c30"/>
      <path id="Path_23" data-name="Path 23" d="M386.628,33.711c0,2.417.921,2.583,2.628,2.764v.71H381.13v-.71c1.707-.166,2.628-.332,2.628-2.764V24.649c0-2.387-.921-2.553-2.628-2.719v-.71h8.126v.71c-1.707.166-2.628.332-2.628,2.719Z" transform="translate(194.551 10.832)" fill="#a51c30"/>
      <path id="Path_24" data-name="Path 24" d="M399.4,21.73c-4.214,0-6.132,3.5-6.132,7.673,0,4.531,2.371,7.552,6.132,7.552,2.749,0,6.208-1.752,6.208-7.552S401.933,21.73,399.4,21.73Zm0,15.935c-5.755,0-9.425-4.124-9.425-8.338,0-4.531,3.957-8.338,9.289-8.338s9.712,3.55,9.712,8.368c-.015,4.259-3.852,8.262-9.607,8.262Z" transform="translate(199.063 10.714)" fill="#a51c30"/>
      <path id="Path_25" data-name="Path 25" d="M409.021,25.414c0-1.662,0-2.93-3.021-3.429v-.71h4.864l11.751,11.842V24.659c0-2.387-.952-2.553-2.674-2.719v-.71h6.495v.71c-1.692.166-2.613.332-2.613,2.719V37.331h-.665l-12.93-12.809v9.259c0,1.163.211,2.674,2.039,2.674h.921v.71h-6.752v-.71c1.707-.166,2.583-.332,2.583-2.764Z" transform="translate(207.246 10.837)" fill="#a51c30"/>
      <path id="Path_26" data-name="Path 26" d="M44.111,4.4c0-2.749-1.057-3.021-3.021-3.127V.44h9.38v.846c-1.994.181-3.021.378-3.021,3.127V8.944H58.173V4.412c0-2.749-1.057-3.021-3.021-3.127V.44h9.41v.846c-1.979.181-3.021.378-3.021,3.127V14.88c0,2.809,1.072,3.021,3.021,3.187V18.9h-9.44v-.831c1.979-.181,3.021-.378,3.021-3.187V10.349H47.419V14.88c0,2.809,1.057,3.021,3.021,3.187V18.9H41.105v-.831c1.979-.181,3.021-.378,3.021-3.187Z" transform="translate(20.975 0.225)" fill="#231f20"/>
      <path id="Path_27" data-name="Path 27" d="M72.316,10.466,69.567,2.823l-2.855,7.643ZM65.02,15.3a3.474,3.474,0,0,0-.287,1.254c0,1.254,1.4,1.51,1.979,1.631v.831H60.67v-.831c1.782-.378,2.266-.77,3.429-3.957L69.37.21h2.613l5.166,14.153c1.072,2.9,1.51,3.625,3.806,3.806V19h-8.64v-.831c1.057-.091,2.175-.242,2.175-1.254a3.822,3.822,0,0,0-.332-1.3l-1.4-3.912H66.334Z" transform="translate(30.97 0.107)" fill="#231f20"/>
      <path id="Path_28" data-name="Path 28" d="M84.9,9.654h2.417c2.024,0,4.4-.725,4.4-4.244,0-2.462-1.1-4.124-3.912-4.124H84.9ZM81.521,4.4c0-2.749-1.057-3.021-3.021-3.127V.44h9.168c1.51,0,7.552,0,7.552,4.833,0,1.843-1.254,3.731-4.259,4.531,1.933.906,2.809,2.069,5.423,5.649,1.752,2.447,2.674,2.447,4.365,2.613V18.9H95.236a42.416,42.416,0,0,1-4.048-5.181c-2.281-3.142-3.383-3.142-4.682-3.142H84.9v4.3c0,2.809,1.012,3.021,3.021,3.187V18.9h-9.4v-.831c1.979-.181,3.021-.378,3.021-3.187Z" transform="translate(40.071 0.225)" fill="#231f20"/>
      <path id="Path_29" data-name="Path 29" d="M104.515,19.124H103.7L97.371,4.639c-.921-2.024-1.4-3.2-3.731-3.353V.44h8.851v.846c-1.314.181-2.175.332-2.175,1.6,0,.438,0,.483.544,1.631l4.35,10.2,4.214-10a4.38,4.38,0,0,0,.438-1.646c0-1.4-1.359-1.631-2.175-1.782V.44H114.3v.846c-1.163.091-2.266.287-3.61,3.429Z" transform="translate(47.799 0.225)" fill="#231f20"/>
      <path id="Path_30" data-name="Path 30" d="M119.686,10.466l-2.764-7.643-2.9,7.643Zm-7.3,4.833a3.5,3.5,0,0,0-.287,1.254c0,1.254,1.4,1.51,1.979,1.631v.831H108.04v-.831c1.782-.378,2.266-.77,3.429-3.957L116.725.21h2.613L124.5,14.363c1.072,2.9,1.51,3.625,3.821,3.806V19h-8.64v-.831c1.057-.091,2.175-.242,2.175-1.254a3.746,3.746,0,0,0-.332-1.3l-1.465-3.9h-6.435Z" transform="translate(55.15 0.107)" fill="#231f20"/>
      <path id="Path_31" data-name="Path 31" d="M132.274,9.654h2.417c2.024,0,4.4-.725,4.4-4.244-.015-2.462-1.118-4.124-3.957-4.124h-2.9Zm-3.383-5.271c0-2.749-1.072-3.021-3.021-3.127V.44h9.259c1.51,0,7.552,0,7.552,4.833,0,1.843-1.254,3.731-4.259,4.531,1.933.906,2.809,2.069,5.407,5.649,1.737,2.371,2.658,2.417,4.35,2.553v.831h-5.5a42.294,42.294,0,0,1-4.063-5.166c-2.266-3.142-3.383-3.142-4.7-3.142h-1.51v4.35c0,2.809,1.012,3.021,3.021,3.187V18.9h-9.38v-.831c1.979-.181,3.021-.378,3.021-3.187Z" transform="translate(64.251 0.225)" fill="#231f20"/>
      <path id="Path_32" data-name="Path 32" d="M150.689,14.9c0,2.326.2,3.142,3.293,3.142,2.553,0,8.217-.816,8.217-8.156-.015-5.558-3.157-8.579-7.9-8.579h-3.625ZM147.351,4.327c0-2.749-1.072-3.021-3.021-3.127V.461h10a12.235,12.235,0,0,1,7.915,1.933,8.9,8.9,0,0,1-.393,14.878,14.3,14.3,0,0,1-7.552,1.646h-10v-.831c2.175-.181,3.021-.438,3.021-3.187Z" transform="translate(73.659 0.204)" fill="#231f20"/>
    </g>
    <g id="Group_2" data-name="Group 2" transform="translate(-14.918)">
      <path id="Path_33" data-name="Path 33" d="M55.1,18.288s1.756,32.2-28.239,48.132C-.8,51.5.132,18.288.132,18.288V.936C.132.357.814.13,1.289.13h52.9a.888.888,0,0,1,.888.847Z" transform="translate(0.137 0.139)" fill="#fff"/>
      <path id="Path_34" data-name="Path 34" d="M22.955,13.832c0-.269-.227-.248-.454-.269a1.363,1.363,0,0,1-.826-.64c-.248-.331-.6-1.425-1.322-1.177-1.157.392-1.653,2.52-2.066,2.623s-.5,0-.454-.392.558-.744.847-1.136.971-1.2.744-1.694-.847-.537-1.384-.826-.7-.289-.847-.537-.124-.413-.475-.413-.31.145-.392.351a1.363,1.363,0,0,1-.868.6c-.392.145-1.529.124-1.529.888,0,1.219,1.136,1.9,1.859,2.809.269.331-.145.661-.516.31a6.59,6.59,0,0,1-.826-1.157c-.434-.62-.847-1.281-1.363-1.239s-.764.64-1.2,1.054-.5.578-.764.64-.434,0-.537.331,0,.331.207.5a1.363,1.363,0,0,1,.289,1.012c0,.413-.351,1.508.372,1.735,1.177.351,2.871-.744,3.161-.785a.269.269,0,0,1,.227.475c-.372.31-.888.269-1.363.413s-1.487.413-1.611.93.372.93.64,1.467a2.066,2.066,0,0,1,.372.93c0,.269-.145.413.145.62s.331,0,.537,0a1.363,1.363,0,0,1,1.054,0c.392.124,1.322.806,1.756.165.7-.992,0-3.161.145-3.367s.537-.269.64,0a4.607,4.607,0,0,1,0,1.425c0,.744,0,1.549.392,1.8s.992,0,1.591-.145a2.066,2.066,0,0,1,.992,0c.248.1.351.248.62,0s.165-.289.1-.516a1.363,1.363,0,0,1,.351-.992c.227-.351,1.177-1.012.7-1.611h0c-.64-.847-2.975-1.095-3.119-1.239a.289.289,0,0,1,.207-.5,4.3,4.3,0,0,1,1.343.454c.7.248,1.446.537,1.839.186s.248-.971.351-1.57,0-.764.248-.971S23.058,14.163,22.955,13.832Zm-6.2,2.747a.276.276,0,1,1,0,.021Z" transform="translate(11.234 9.986)"/>
      <path id="Path_35" data-name="Path 35" d="M31.536,14.192c0-.269-.227-.248-.475-.269a1.363,1.363,0,0,1-.826-.64c-.248-.331-.6-1.425-1.322-1.177-1.157.392-1.653,2.52-2.066,2.623s-.5,0-.454-.392.558-.764.847-1.136.971-1.2.744-1.694-.847-.537-1.384-.826-.7-.289-.847-.537-.124-.413-.475-.413-.31.145-.413.351a1.363,1.363,0,0,1-.868.6c-.392.145-1.529.124-1.529.888,0,1.219,1.136,1.9,1.859,2.809.269.331-.145.661-.516.31a6.445,6.445,0,0,1-.826-1.157c-.434-.62-.847-1.281-1.363-1.239s-.764.64-1.2,1.054-.5.578-.764.64-.434,0-.537.331,0,.331.227.5a1.343,1.343,0,0,1,.289,1.012c0,.413-.351,1.487.372,1.715,1.177.372,2.871-.744,3.161-.785a.269.269,0,0,1,.227.475,3.718,3.718,0,0,1-1.363.413c-.723.227-1.487.413-1.591.93s.372.93.64,1.487.392.64.372.93-.124.413.145.62.331,0,.537,0a1.363,1.363,0,0,1,1.054,0c.392.124,1.322.806,1.756.165.7-.992,0-3.161.145-3.367s.537-.269.64,0a4.379,4.379,0,0,1,0,1.425c0,.744,0,1.529.392,1.8s.992,0,1.591-.145a2.066,2.066,0,0,1,.992,0c.248.1.351.248.62,0s.165-.289.124-.516a1.363,1.363,0,0,1,.351-.992c.227-.351,1.177-1.012.7-1.611h0c-.64-.847-2.975-1.115-3.119-1.239a.289.289,0,0,1,.207-.516,4.38,4.38,0,0,1,1.343.454c.7.248,1.446.537,1.838.186s.248-.971.351-1.57a2.066,2.066,0,0,1,.248-.971C31.474,14.564,31.639,14.419,31.536,14.192Zm-6.2,2.768a.671.671,0,1,0,0-.021Z" transform="translate(20.335 10.37)"/>
      <path id="Path_36" data-name="Path 36" d="M55.1,18.288V.977A.888.888,0,0,0,54.19.13H1.287C.812.13.13.357.13.936V18.288Z" transform="translate(0.139 0.138)" fill="#a51c30"/>
      <path id="Path_37" data-name="Path 37" d="M55.486,18.592H0V1.074C0,.372.723,0,1.425,0h52.9a1.157,1.157,0,0,1,1.157,1.115ZM.516,18.158H54.969V1.115a.64.64,0,0,0-.64-.6H1.425c-.31,0-.909.145-.909.558Z" transform="translate(0.001 0)"/>
      <path id="Path_38" data-name="Path 38" d="M46.692,38.811H38.429v-5.33H31.467V28.111H23.721V22.223H15.85v-5.8H8.889V10.655s-4.235-.124-6.2,0A2.644,2.644,0,0,1,.13,8.92" transform="translate(0.139 9.506)" fill="none" stroke="#000" stroke-width="0.05"/>
      <path id="Path_39" data-name="Path 39" d="M26.979,57.341h-.124C-.619,42.529,0,9.251,0,8.92H.517c0,.331-.516,33.217,26.462,47.842C56.354,41.063,54.99,9.251,54.97,8.941h.516c0,.331,1.425,32.556-28.383,48.379Z" transform="translate(0 9.506)"/>
      <circle id="Ellipse_1" data-name="Ellipse 1" cx="0.661" cy="0.661" r="0.661" transform="translate(18.716 46.417)"/>
      <path id="Path_40" data-name="Path 40" d="M38.493,38.811v-5.33H31.469V28.111H23.723V22.223h-7.87v-5.8H8.891V10.655s-4.235-.124-6.2,0A2.644,2.644,0,0,1,.132,8.92S-.8,42.137,26.842,57.052a51.519,51.519,0,0,0,19.852-18.24ZM25.169,36.064a2.066,2.066,0,0,0-.248.971c-.1.6.248,1.033-.351,1.57s-1.136,0-1.838-.186a4.358,4.358,0,0,0-1.343-.454.289.289,0,0,0-.207.516c.145.124,2.479.372,3.119,1.239h0c.454.62-.475,1.281-.7,1.611a1.363,1.363,0,0,0-.351.992c0,.227.124.351-.124.537s-.372,0-.62,0a2.066,2.066,0,0,0-.992,0c-.6,0-.909.558-1.591.145s-.392-1.054-.372-1.8a4.565,4.565,0,0,0,0-1.425c0-.31-.454-.269-.64,0s.578,2.355-.124,3.285c-.434.62-1.363,0-1.756-.165A1.363,1.363,0,0,0,16,42.9c-.207.124-.31.227-.537,0s-.165-.331-.145-.62a1.992,1.992,0,0,0-.372-.93c-.186-.351-.806-.7-.64-1.467s.888-.7,1.611-.93a3.822,3.822,0,0,0,1.363-.413.292.292,0,1,0-.227-.537c-.289,0-2.066,1.136-3.161.785-.723-.227-.372-1.322-.372-1.735a1.363,1.363,0,0,0-.289-1.012c-.186-.165-.31-.227-.227-.5s.269-.269.537-.331.475-.372.764-.64.413-.992,1.2-1.054.95.62,1.363,1.239a6.734,6.734,0,0,0,.826,1.157c.372.351.785,0,.516-.31-.723-.909-1.839-1.591-1.859-2.809,0-.764,1.136-.764,1.529-.888a1.363,1.363,0,0,0,.868-.6c0-.227.1-.351.392-.351s.331.165.475.413.5.351.847.537,1.054,0,1.384.826-.31,1.095-.744,1.694-.806.661-.847,1.136.145.475.454.392.95-2.231,2.066-2.623c.723-.248,1.074.847,1.322,1.177a1.384,1.384,0,0,0,.826.64c.248,0,.372,0,.475.269a.531.531,0,0,1-.207.64Z" transform="translate(0.137 9.506)"/>
      <path id="Path_41" data-name="Path 41" d="M28.639,1.657a3.76,3.76,0,0,0-2.376.475v.124l-.558-.207A3.305,3.305,0,0,0,24.57,1.76l-4.813-.1V3.433l-.165.434h-.145l-.578.124c-.454,0-.661.124-.764.351a.6.6,0,0,0-.1.124.5.5,0,0,0,.165.413h.372c.331,0,1.012,0,1.095.744V9.176a.744.744,0,0,1-.847.516h-.165c-.145,0-.392.124-.413.31,0,.1,0,.289.165.351h.392a1.136,1.136,0,0,1,.93.475h0v1.3a.744.744,0,0,0,.165.5h3.7a4.689,4.689,0,0,1,2.685.5,1.06,1.06,0,0,0,.764-.269l.331-.207h4.3a3.574,3.574,0,0,0,.95,0V10.952a.93.93,0,0,1,.971-.289H33.8a.434.434,0,0,0,.31-.351.971.971,0,0,0-.248-.392l-.372-.1-1.033-.454V5.4h0a1.012,1.012,0,0,1,.888-.331H33.7a.764.764,0,0,0,.454-.6h0c0-.269-.1-.331-.578-.372a1.57,1.57,0,0,1-.888-.31l-.227-.165V2.4a1.157,1.157,0,0,0,0-.62H31.387l-1.322-.1Z" transform="translate(19.183 1.731)" fill="#fff"/>
      <path id="Path_42" data-name="Path 42" d="M3.868,1.651h0l-.62-.021h-.7L2.4,3.386h0a1.074,1.074,0,0,1-1.012.31H.935a.248.248,0,0,0-.1.207,1.343,1.343,0,0,0,.083.558c0,.124.124.207.5.289h.124a.744.744,0,0,1,.682.289h0A6.61,6.61,0,0,1,2.5,6.526c0,.331,0,.64,0,.95V9.108l-.1.145-.269.289H1.7a1.157,1.157,0,0,0-.62.124c-.124.1-.145.269-.145.6h0l.248.269v.124h.289a1.033,1.033,0,0,1,.868.31h0v1.239a.682.682,0,0,0,.31.516H7.793a2.19,2.19,0,0,0,.723.372,1.735,1.735,0,0,0,.971-.413h5.949a2.19,2.19,0,0,0,0-.331V11.69a1.508,1.508,0,0,1,0-.186.806.806,0,0,1,.207-.578,1.116,1.116,0,0,1,.93-.269c.516,0,.558,0,.6-.207a1.3,1.3,0,0,0,0-.31.661.661,0,0,0,0-.248A1.818,1.818,0,0,0,16.1,9.686h0a.868.868,0,0,1-.454-1.095,6.073,6.073,0,0,1,0-1.777V5.369L15.891,5h.62c.31,0,.475,0,.62-.207a.62.62,0,0,0,0-.434l-.248-.248a1.611,1.611,0,0,0-.372,0,.826.826,0,0,1-.868-.537h0V1.919c0-.269-.227-.124-.62,0H12.276a7.726,7.726,0,0,0-3.615.351H8.371A5.1,5.1,0,0,0,6.595,1.9h-.7a8.263,8.263,0,0,0-2.024-.248Z" transform="translate(0.884 1.737)" fill="#fff"/>
      <path id="Path_43" data-name="Path 43" d="M32.849,1.551c.434.558.145,1.343.248,2.066.475.413,1.487,0,1.591.888a1.012,1.012,0,0,1-.331.847c-.331.331-.909,0-1.2.372-.1,1.115,0,2.334,0,3.594.331.227.764.186,1.136.372a1.219,1.219,0,0,1,.351.744.744.744,0,0,1-.516.64c-.289.145-.806,0-.95.413a8.287,8.287,0,0,0,0,1.9,3.119,3.119,0,0,1-1.3.186h-4.3c-.392.227-.826.64-1.384.413a6.2,6.2,0,0,0-3.2-.454h-3.2c-.578-.516-.145-1.4-.331-2.066s-.806-.227-1.157-.413a.744.744,0,0,1-.372-.806.785.785,0,0,1,.682-.62c.248-.145.723.1.826-.289V5.993c0-.661-.95-.269-1.3-.516a.93.93,0,0,1-.289-.992c.289-.64,1.012-.475,1.57-.661V1.717l.186-.145,4.978.124a5.082,5.082,0,0,1,1.632.434c1.054-.806,2.623-.413,3.884-.62.868.186,1.777,0,2.644.227Z" transform="translate(18.98 1.609)"/>
      <path id="Path_44" data-name="Path 44" d="M8.755,1.98A16.361,16.361,0,0,1,14.5,1.649c.5.1,1.281-.269,1.591.289V3.674c0,.578.764,0,1.095.289s.392.227.434.454a.95.95,0,0,1-.1.826c-.372.413-.826.248-1.3.372l-.145.227a21.794,21.794,0,0,0,.041,3.016c0,.227-.1.516.145.661a1.942,1.942,0,0,1,1.384.331,1.281,1.281,0,0,1,0,.888c-.227,1.115-1.88-.145-1.715,1.157a4.71,4.71,0,0,1,0,1.591c-2.066,0-3.966-.145-5.8,0A2.066,2.066,0,0,1,8.879,14a2.665,2.665,0,0,1-1.012-.516c-1.777,0-3.532,0-5.226-.1-.537-.475-.145-1.26-.331-2.066-.289-.331-.723,0-1.054-.269s-.351-.124-.5-.351A1.177,1.177,0,0,1,1.05,9.685,2.066,2.066,0,0,1,2.1,9.458l.186-.186a30.676,30.676,0,0,0,0-3.677c-.186-.269-.516,0-.723-.227S.843,5.2.74,4.727.6,4.128.885,3.88s1.095,0,1.446-.372l.145-1.777c.289-.516.992-.269,1.487-.269a12.663,12.663,0,0,1,2.913,0,5.371,5.371,0,0,1,1.88.413Z" transform="translate(0.707 1.47)"/>
      <path id="Path_45" data-name="Path 45" d="M6.557,2.188l.145.331v8.573a18.131,18.131,0,0,0-1.921-.227,12.725,12.725,0,0,1-2.066-.186,7.974,7.974,0,0,1-.186-2.623c0-1.859,0-4.131,0-6.2,0-.145.186-.227.289-.248,1.281.1,2.644-.227,3.677.454Z" transform="translate(2.657 1.716)" fill="#fff"/>
      <path id="Path_46" data-name="Path 46" d="M3.442,1.9c-.331.248-.764.744-.62,1.177.145,3.119,0,5.887.145,8.821l.227.31a24.314,24.314,0,0,1,4.359.1s0,.145,0,.227a3.2,3.2,0,0,1-1.2,0h-3.7c-.248-.227-.145-.744-.145-1.033s.1-.826-.289-1.033-1.012,0-1.343-.372c.248-.744,1.425-.145,1.632-.971.1-1.363-.1-2.747,0-4.131-.124-.578-.93-.413-1.384-.578a.372.372,0,0,1-.145-.331c.434-.454,1.3,0,1.632-.558a13.944,13.944,0,0,0,.1-1.715.785.785,0,0,1,.764-.1v.145Z" transform="translate(0.938 1.772)" fill="#fff"/>
      <path id="Path_47" data-name="Path 47" d="M9.5,1.92V10.7a26.5,26.5,0,0,0-4.545.289c-.331-.289,0-.785-.145-1.177V2.292a1.26,1.26,0,0,1,1.2-.6l3.326.041.1.186Z" transform="translate(5.122 1.798)" fill="#fff"/>
      <path id="Path_48" data-name="Path 48" d="M10.706,1.918c.1.6-.145,1.363.227,2.066.351.227.909.1,1.281.186a.454.454,0,0,1,0,.516c-.392.413-1.239-.124-1.446.558V9.582l.165.1c.475,0,1.054-.1,1.384.248s0,.434-.227.516-1.157-.145-1.425.372a15.286,15.286,0,0,1,0,1.88H5.294c-.1,0,0-.145,0-.227l.516-.186H9.942c.434-.1.434-.661.475-.992V5.409a15.658,15.658,0,0,0-.083-3.037c0-.227-.372-.372-.392-.64a.64.64,0,0,1,.764.1Z" transform="translate(5.593 1.759)" fill="#fff"/>
      <path id="Path_49" data-name="Path 49" d="M26.357,1.71A2.066,2.066,0,0,1,26.5,2.743V7.866a21.049,21.049,0,0,1,0,2.892l-.331.124c-1.3.145-2.685-.289-3.822.372-.207,0-.207-.248-.248-.372L22.039,7.06s0-.1.186-.1a1.074,1.074,0,0,1,.227.744l-.289.413.186.145a4.483,4.483,0,0,0,1.425,0c-.1-.227-.372-.289-.516-.454-.516-1.363-.868-2.83-1.281-4.131a2.192,2.192,0,0,1,.248-1.487c.764-.475,1.818-.186,2.768-.331h1.3Z" transform="translate(23.407 1.822)" fill="#fff"/>
      <path id="Path_50" data-name="Path 50" d="M20.534,1.834c0,.289-.434.516-.537.806,0,3.037,0,6.342.1,9.482l.248.145a11.527,11.527,0,0,1,4.689.372h0c-1.735,0-3.491.1-5.185,0l-.145-.186a5.5,5.5,0,0,0-.207-1.9c-.392-.372-1.57.1-1.281-.744.434-.331,1.136.1,1.384-.454V4.974c-.331-.454-.95-.145-1.384-.269a.413.413,0,0,1-.207-.516c.475-.413,1.859.1,1.611-1.033.145-.475-.227-1.4.434-1.446a.623.623,0,0,1,.434.1Z" transform="translate(19.17 1.822)" fill="#fff"/>
      <path id="Path_51" data-name="Path 51" d="M23.376,1.877c.806.248.578,1.219.62,1.859-.248,1.26-.764,2.417-1.054,3.7,0,.248-.331.289-.516.454s-.372-.227-.475-.372c0-1.115.1-2.066,0-3.223,0-.186.186-.413.372-.227a2.764,2.764,0,0,1,.372.785.165.165,0,0,0,.289,0l.186-1.157c-.145-.372-.475,0-.764,0a3.745,3.745,0,0,1-1.818-.227c-.434.145-.331.785-.392,1.177a.165.165,0,0,0,0,.186c.372-.227.537-.806,1.054-.661V5.285l-.1,2.417c-.145.186-.516.269-.475.516a12.394,12.394,0,0,0,2.066,0,2.582,2.582,0,0,0,1.054,0,.186.186,0,0,0,0-.269c-.227-.1-.475-.289-.392-.6s.145-.558.475-.434.145.289.186.413a31.235,31.235,0,0,1,0,3.78c-.392.1-.661-.269-1.054-.269a29.372,29.372,0,0,0-3.016,0c-.372-.145-.248-.6-.248-.93V1.794a.248.248,0,0,1,.227-.1,28.531,28.531,0,0,1,3.553.145Z" transform="translate(21.017 1.8)" fill="#fff"/>
      <path id="Path_52" data-name="Path 52" d="M27.643,1.944c.145.7-.145,1.4.248,2.066.434.1,1.136-.145,1.343.289,0,.888-1.239.186-1.487.888.1,1.4-.1,2.562,0,4.131a.269.269,0,0,0,0,.413c.392.331.909-.227,1.3.145s.1.289.1.454c-.331.475-1.136,0-1.343.558l-.165,1.8H22.52v-.145l.578-.227h3.718a.5.5,0,0,0,.434-.454c0-2.933,0-5.97,0-9.151l-.434-.888c.186-.186.682-.227.806,0Z" transform="translate(24.001 1.774)" fill="#fff"/>
      <path id="Path_53" data-name="Path 53" d="M19.8,2.818v7.974c0,.227-.331.331-.475.475l-.145-.1V2.446c.145-.145.289-.454.475-.516a3.822,3.822,0,0,1,.145.888Z" transform="translate(20.441 2.057)" fill="#fff"/>
      <path id="Path_54" data-name="Path 54" d="M24.95,2.4v8.593s0,.124-.1.145c-.62-.248-.392-.971-.434-1.508a18.385,18.385,0,0,1,0-2.458l-.1-.269V2.049c.145-.331.434.145.537.331Z" transform="translate(25.909 2.062)" fill="#fff"/>
      <path id="Path_55" data-name="Path 55" d="M2.566,1.951c.145,3,0,5.887,0,8.759a.434.434,0,0,1-.372.331,8.7,8.7,0,0,1-.062-2.768c0-1.88,0-4.008,0-5.887a.971.971,0,0,1,.475-.454Z" transform="translate(2.186 2.057)" fill="#fff"/>
      <path id="Path_56" data-name="Path 56" d="M7.745,2.246v8.676c0,.145-.227,0-.331-.1a3.925,3.925,0,0,1,0-1.446c-.1-2.417,0-4.854,0-7.313.145-.186.351,0,.434.186Z" transform="translate(7.831 2.113)" fill="#fff"/>
      <path id="Path_57" data-name="Path 57" d="M5,4.84Z" transform="translate(5.329 5.158)" fill="#272727"/>
      <path id="Path_58" data-name="Path 58" d="M24.322,2.71ZM23,5.685" transform="translate(24.512 2.888)" fill="#272727" stroke="#fff" stroke-miterlimit="3.86" stroke-width="0"/>
      <path id="Path_59" data-name="Path 59" d="M22.394,4.494c0,.186-.392.186-.578.1H21.63c.1-.413,0-.888.331-1.177.331.227.289.744.434,1.157Z" transform="translate(23.052 3.645)" fill="#fff"/>
      <path id="Path_60" data-name="Path 60" d="M9.834,6.7c-.1.227-.434.1-.661.186H8.037a11.2,11.2,0,0,0-2.727,0A.351.351,0,0,1,5,6.641c.1-.331.516-.227.806-.331H9.359a1.012,1.012,0,0,1,.475.413Z" transform="translate(5.329 6.725)" fill="#fff"/>
      <path id="Path_61" data-name="Path 61" d="M6.458,6.564A.486.486,0,0,1,6.127,7,24.149,24.149,0,0,0,2.45,6.729h0a.537.537,0,0,1,.516-.413A15.452,15.452,0,0,1,6.5,6.585Z" transform="translate(2.612 6.719)" fill="#fff"/>
      <path id="Path_62" data-name="Path 62" d="M23.994,6.684c.1,0,.1.269,0,.289-.434.516-.992-.1-1.57,0-.95-.1-2.066,0-2.954-.1.248-.806,1.384-.331,2.066-.475a3.807,3.807,0,0,1,2.5.289Z" transform="translate(20.75 6.723)" fill="#fff"/>
      <path id="Path_63" data-name="Path 63" d="M26.428,6.443a.888.888,0,0,1,.392.475,28.631,28.631,0,0,0-4.359.227.331.331,0,0,1-.227-.454c.289-.331.764-.269,1.2-.331h2.975Z" transform="translate(23.667 6.778)" fill="#fff"/>
      <path id="Path_64" data-name="Path 64" d="M5.609,6.972a.744.744,0,0,1-.227.826.537.537,0,0,1-.661.1c-.227,0-.248-.289-.289-.475s.331-.558.537-.847a.93.93,0,0,1,.62.413Z" transform="translate(4.72 7.013)" fill="#fff"/>
      <path id="Path_65" data-name="Path 65" d="M22.7,7.093c0,.331,0,.806-.392.806a.537.537,0,0,1-.62-.372.826.826,0,0,1,.392-.847C22.409,6.68,22.554,6.907,22.7,7.093Z" transform="translate(23.1 7.119)" fill="#fff"/>
      <path id="Path_66" data-name="Path 66" d="M24.711,2.982c0,.269.186.764,0,.95-.269-.227-.289-.454-.7-.558s-.434,0-.475.31c0,.785.7.785,1.157,1.322A1.673,1.673,0,0,1,25.1,6.638c-.165.434-.372.682-.785.682s-.62-.186-.93,0-.227,0-.289,0V5.853a.207.207,0,0,1,.1-.227c.227.5,0,1.054.744,1.095.227,0,.413,0,.454-.372,0-1.322-1.632-.992-1.591-2.355a2.19,2.19,0,0,1,.227-.826c.289-.5.971-.186,1.4-.5s.186.186.227.31Z" transform="translate(24.31 2.74)"/>
      <path id="Path_67" data-name="Path 67" d="M17.895,2h0a1.26,1.26,0,0,1-1.322,0l-.413-.145H12.172c-.537,0-.868,0-1.054.207l-.1,1.694h0a.95.95,0,0,1-.93.413H9.756a.372.372,0,0,0-.331.31h0a.819.819,0,0,0,.682.372l.971.186V9.354A1.281,1.281,0,0,1,10,9.726c-.331,0-.475,0-.578.145a1.591,1.591,0,0,0,0,.351h0c0,.227.331.269.826.289l.93.145v.227a3.264,3.264,0,0,1,0,.785v1.074c.227.248.62.269,1.219.227h3.9l.909.413c.269.165.516,0,.888-.248l.227-.165H21.84a12.87,12.87,0,0,0,2.293,0,.145.145,0,0,0,0-.145,2.065,2.065,0,0,0,0-.248v-.764h0v-.351a.682.682,0,0,1,.227-.537h0l.723-.248a.95.95,0,0,0,.826-.351h0a.5.5,0,0,0-.124-.31c0-.145-.207-.165-.475-.207a1.3,1.3,0,0,1-.847-.331h0v-3.9h0a1.054,1.054,0,0,1,1.012-.537c.248,0,.392,0,.475-.124a.537.537,0,0,0,0-.289.7.7,0,0,0,0-.248c0-.207-.248-.248-.661-.31l-.826-.186V1.856l-.227-.124a14.13,14.13,0,0,1-2.438,0,8.263,8.263,0,0,0-3.9.269Z" transform="translate(10.035 1.718)" fill="#fff"/>
      <path id="Path_68" data-name="Path 68" d="M24.161,1.47a1.193,1.193,0,0,1,.62.269c.186.7,0,1.3.145,2.066.475.186,1.157,0,1.425.64a1.033,1.033,0,0,1,0,.93c-.372.475-1.2,0-1.446.6a22.93,22.93,0,0,0,0,3.532c.372.372,1.012,0,1.343.558a.868.868,0,0,1,.186.785c-.289.475-.909.475-1.425.6s0,.516-.1.785.248,1.074-.289,1.363a28.977,28.977,0,0,1-4.441,0H18.728c-.392.269-.868.661-1.384.372l-.909-.413h-3.2c-.723,0-1.735.289-2.21-.413a7.251,7.251,0,0,0,0-1.777c-.558-.186-1.467,0-1.735-.64a1.3,1.3,0,0,1,0-.744c.392-.6,1.3,0,1.715-.558V7.791a14.336,14.336,0,0,0,0-2.066c-.537-.227-1.487,0-1.591-.785a.744.744,0,0,1,.578-.888c.372-.1.868,0,1.054-.269l.1-1.735c.434-.744,1.487-.289,2.066-.413h3.305c.516,0,.971.6,1.487.248,2.066-.806,4.131-.1,6.2-.331Z" transform="translate(9.841 1.567)"/>
      <path id="Path_69" data-name="Path 69" d="M18.2,1.989v8.738h-.145a17.91,17.91,0,0,0-4.5.269c-.248-.145,0-.6-.1-.847V2.506a.6.6,0,0,1,.392-.558c.392-.289.95-.186,1.446-.248h2.871v.227Z" transform="translate(14.318 1.812)" fill="#fff"/>
      <path id="Path_70" data-name="Path 70" d="M14.935,2.012c.331.289.289.826.289,1.26V7.837a.542.542,0,0,1-.372-.1c-.434-.372-.537-.93-.909-1.363.145-.227.392-.248.578-.434a1.177,1.177,0,0,0,.434-1.157,1.136,1.136,0,0,0-.578-.93,5.743,5.743,0,0,0-2.5-.1.207.207,0,0,0,0,.331.661.661,0,0,1,.434.6,20.64,20.64,0,0,1-.145,3.016l-.392.434c.392.372.95,0,1.529.186.145-.269-.248-.454-.331-.744a1.267,1.267,0,0,1,.186-.971c.537.475.723,1.26,1.384,1.715h.806a23.569,23.569,0,0,1,0,2.747,12.764,12.764,0,0,1-1.384-.289,15.617,15.617,0,0,1-2.644,0v-8.9c0-.145.1,0,.186-.1a10.866,10.866,0,0,1,3.677.289Z" transform="translate(12.065 1.831)" fill="#fff"/>
      <path id="Path_71" data-name="Path 71" d="M19.479,1.9a8.428,8.428,0,0,0,.1,1.921c.434.413,1.673-.186,1.425.806-.392.269-.95,0-1.384.145l-.1.145c-.186,1.487.1,3,0,4.338a.475.475,0,0,0,.331.454c.227.041,1.012-.269,1.157.269,0,.888-1.2,0-1.487.785s.186,1.26,0,1.9l-.186.1-5.495-.124v-.186l.331-.124c1.446-.145,3.057,0,4.586-.145a.413.413,0,0,0,.351-.434v-8.9c0-.454-.516-.7-.578-1.115.248,0,.723-.145.868.186Z" transform="translate(14.75 1.817)" fill="#fff"/>
      <path id="Path_72" data-name="Path 72" d="M12.153,1.777c0,.331-.372.454-.516.7a5.369,5.369,0,0,0,0,1.818v7.478a.475.475,0,0,0,.331.434h3.884a1.157,1.157,0,0,1,.62.269c0,.227-.372.145-.537.186a43.608,43.608,0,0,1-4.462,0l-.145-.1a5.04,5.04,0,0,0-.248-2.066c-.434-.186-.992,0-1.446-.145s-.145-.413,0-.558c.475-.248,1.384.145,1.632-.516v-4.3c-.392-.6-1.239,0-1.591-.6.145-.847,1.3-.1,1.632-.806l.1-1.735c.227-.227.516-.145.764-.1Z" transform="translate(10.013 1.797)" fill="#fff"/>
      <path id="Path_73" data-name="Path 73" d="M11.356,2.075c.1,2.562-.145,4.854,0,7.416-.227.6.248,1.446-.578,1.591-.145-2.562,0-5.309-.1-8.077a1.074,1.074,0,0,1,.537-1.074Z" transform="translate(11.367 2.057)" fill="#fff"/>
      <path id="Path_74" data-name="Path 74" d="M16.488,2.4c0,2.809,0,5.867-.1,8.593a.4.4,0,0,1-.351-.289,28.782,28.782,0,0,1,0-3.532c0-1.591-.1-3.491,0-5.123.186-.1.475.1.475.331Z" transform="translate(17.019 2.149)" fill="#fff"/>
      <path id="Path_75" data-name="Path 75" d="M13.245,3.156a1.818,1.818,0,0,1,.145.888c-.145.269-.227.558-.516.64s-.661.186-.723-.145a3.266,3.266,0,0,1,0-1.549.806.806,0,0,1,1.095.186Z" transform="translate(12.845 3.041)" fill="#fff"/>
      <path id="Path_76" data-name="Path 76" d="M15.131,6.56a.263.263,0,0,1,.227.372l-.227.269A22.516,22.516,0,0,0,11,6.828a1.777,1.777,0,0,1,.392-.516,22.538,22.538,0,0,1,3.739.248Z" transform="translate(11.724 6.723)" fill="#fff"/>
      <path id="Path_77" data-name="Path 77" d="M18.274,6.406c.186.1.392.289.392.475h-.186a19.811,19.811,0,0,0-4.5.186c-.207,0-.475,0-.516-.269s.578-.454.95-.475c1.3-.1,2.582,0,3.842,0Z" transform="translate(14.344 6.69)" fill="#fff"/>
      <path id="Path_78" data-name="Path 78" d="M14.063,7.1c0,.289,0,.661-.372.661s-.661,0-.661-.372a1.157,1.157,0,0,1,.537-.62.535.535,0,0,1,.475.331Z" transform="translate(13.887 7.215)" fill="#fff"/>
      <path id="Path_79" data-name="Path 79" d="M15.914,2.759c-.372.186-.764.475-.661.992a17.642,17.642,0,0,0,0,2.789l.578.516h0a10.1,10.1,0,0,1-1.818,0c-.248-.289.331-.454.434-.661a16.051,16.051,0,0,0,.041-3.078c-.1-.331-.661-.186-.516-.558a7.292,7.292,0,0,1,1.818,0l.1.1Z" transform="translate(14.866 2.88)"/>
      <path id="Path_80" data-name="Path 80" d="M7.858,3.677c-.351.434-.434-.413-.806-.454s-.537-.1-.723,0a2.913,2.913,0,0,0,0,1.384c.145.1.434,0,.62,0s.331-.558.62-.516,0,.475,0,.661.186.62-.145.744-.331-.516-.62-.516H6.288a4.131,4.131,0,0,0,0,1.88c.289.289.661,0,.971,0s.372-.785.764-.7a1.694,1.694,0,0,1,0,.971l-.207.145H5.234c-.1,0-.372,0-.248-.227.826-.516.372-1.529.475-2.334s.434-1.2-.413-1.673c0-.227.227-.145.289-.227.661,0,1.529.269,2.066-.289.392.227.372.744.392,1.157Z" transform="translate(5.281 2.686)"/>
      <path id="Path_81" data-name="Path 81" d="M6.233,3.009c-.723.6-.764,1.632-1.095,2.479-.289.475-.145,1.177-.62,1.591a.361.361,0,0,1-.372-.269,25.305,25.305,0,0,0-.888-3.367c0-.331-.806-.413-.372-.661s.95,0,1.446,0c.1.331-.392.516-.248.93A5.149,5.149,0,0,0,4.7,5.405l.186-.186c0-.847.971-1.632.186-2.376.186-.331.723-.1,1.095-.227s.331.145.145.331Z" transform="translate(2.94 2.755)"/>
    </g>
  </g>
</svg>
